<?xml version="1.0" encoding="UTF-8"?><svg id="Layer_2" xmlns="http://www.w3.org/2000/svg" viewBox="0 0 683.73 143.67"><defs><style>.cls-1{fill:#922b1f;}.cls-1,.cls-2,.cls-3,.cls-4,.cls-5,.cls-6{stroke-width:0px;}.cls-2{fill:#2c3c5b;}.cls-3{fill:#8b7246;}.cls-4{fill:#a5938b;}.cls-5{fill:#231f20;}.cls-6{fill:#ab9175;}</style></defs><g id="Layer_1-2"><rect class="cls-4" y="1.24" width="683" height="141.19"/><rect class="cls-5" y="142.46" width="605.34" height="1.21"/><rect class="cls-5" y="11.2" width="605.34" height="1.21"/><rect class="cls-5" y="0" width="605.34" height="1.21"/><rect class="cls-5" y="131.63" width="605.34" height="1.21"/><path class="cls-5" d="M120.47,70.14l.57,1.72.03-.08.55-1.64c2.25-6.71,3.39-12.17,3.39-16.23,0-4.51-1.14-10.14-3.39-16.72l-.54-1.59-.03-.09-.57,1.67c-2.25,6.58-3.39,12.21-3.39,16.72,0,4.96,1.85,11.56,3.4,16.22ZM121.04,39.31s.02.06.03.1c1.81,5.67,2.72,10.54,2.72,14.5,0,3.56-.92,8.26-2.72,14,0,.02-.01.05-.02.07-1.37-4.38-2.76-9.86-2.76-14.07,0-3.98.93-8.89,2.75-14.6Z"/><path class="cls-5" d="M2.88,82.97c0-1.59-1.29-2.88-2.88-2.88v1.21c.92,0,1.66.75,1.66,1.66s-.75,1.66-1.66,1.66v1.21c1.59,0,2.88-1.29,2.88-2.88Z"/><path class="cls-5" d="M3.94,53.91c0-4.51-1.14-10.14-3.39-16.72l-.54-1.59v3.8c1.81,5.67,2.72,10.54,2.72,14.5,0,3.56-.92,8.26-2.72,14v3.87l.55-1.64c2.25-6.71,3.39-12.17,3.39-16.23Z"/><path class="cls-5" d="M24.21,85.85c1.59,0,2.88-1.29,2.88-2.88s-1.29-2.88-2.88-2.88-2.88,1.29-2.88,2.88,1.29,2.88,2.88,2.88ZM24.21,81.31c.92,0,1.66.75,1.66,1.66s-.75,1.66-1.66,1.66-1.66-.75-1.66-1.66.75-1.66,1.66-1.66Z"/><path class="cls-5" d="M23.61,70.14l.57,1.72.58-1.72c2.25-6.71,3.39-12.17,3.39-16.23,0-4.51-1.14-10.14-3.39-16.72l-.57-1.67-.57,1.67c-2.25,6.58-3.39,12.21-3.39,16.72,0,4.96,1.85,11.56,3.4,16.22ZM24.18,39.31c1.83,5.71,2.75,10.62,2.75,14.6,0,3.57-.92,8.3-2.75,14.07-1.37-4.38-2.76-9.86-2.76-14.07,0-3.98.93-8.89,2.75-14.6Z"/><path class="cls-5" d="M48.43,85.85c1.59,0,2.88-1.29,2.88-2.88s-1.29-2.88-2.88-2.88-2.88,1.29-2.88,2.88,1.29,2.88,2.88,2.88ZM48.43,81.31c.92,0,1.66.75,1.66,1.66s-.75,1.66-1.66,1.66-1.66-.75-1.66-1.66.75-1.66,1.66-1.66Z"/><path class="cls-5" d="M47.83,70.14l.57,1.72.58-1.72c2.25-6.71,3.39-12.17,3.39-16.23,0-4.51-1.14-10.14-3.39-16.72l-.57-1.67-.57,1.67c-2.25,6.58-3.39,12.21-3.39,16.72,0,4.96,1.85,11.56,3.4,16.22ZM48.4,39.31c1.83,5.71,2.75,10.62,2.75,14.6,0,3.57-.92,8.3-2.75,14.07-1.37-4.38-2.76-9.86-2.76-14.07,0-3.98.93-8.89,2.75-14.6Z"/><path class="cls-5" d="M72.64,85.85c1.59,0,2.88-1.29,2.88-2.88s-1.29-2.88-2.88-2.88-2.88,1.29-2.88,2.88,1.29,2.88,2.88,2.88ZM72.64,81.31c.92,0,1.66.75,1.66,1.66s-.75,1.66-1.66,1.66-1.66-.75-1.66-1.66.75-1.66,1.66-1.66Z"/><path class="cls-5" d="M72.04,70.14l.57,1.72.58-1.72c2.25-6.71,3.39-12.17,3.39-16.23,0-4.51-1.14-10.14-3.39-16.72l-.57-1.67-.57,1.67c-2.25,6.58-3.39,12.21-3.39,16.72,0,4.96,1.85,11.56,3.4,16.22ZM72.61,39.31c1.83,5.71,2.75,10.62,2.75,14.6,0,3.57-.92,8.3-2.75,14.07-1.37-4.38-2.76-9.86-2.76-14.07,0-3.98.93-8.89,2.75-14.6Z"/><path class="cls-5" d="M96.86,85.85c1.59,0,2.88-1.29,2.88-2.88s-1.29-2.88-2.88-2.88-2.88,1.29-2.88,2.88,1.29,2.88,2.88,2.88ZM96.86,81.31c.92,0,1.66.75,1.66,1.66s-.75,1.66-1.66,1.66-1.66-.75-1.66-1.66.75-1.66,1.66-1.66Z"/><path class="cls-5" d="M96.26,70.14l.57,1.72.58-1.72c2.25-6.71,3.39-12.17,3.39-16.23,0-4.51-1.14-10.14-3.39-16.72l-.57-1.67-.57,1.67c-2.25,6.58-3.39,12.21-3.39,16.72,0,4.96,1.85,11.56,3.4,16.22ZM96.83,39.31c1.83,5.71,2.75,10.62,2.75,14.6,0,3.57-.92,8.3-2.75,14.07-1.37-4.38-2.76-9.86-2.76-14.07,0-3.98.93-8.89,2.75-14.6Z"/><path class="cls-5" d="M241.54,70.14l.57,1.72.03-.08.55-1.64c2.25-6.71,3.39-12.17,3.39-16.23,0-4.51-1.14-10.14-3.39-16.72l-.54-1.59-.03-.09-.57,1.67c-2.25,6.58-3.39,12.21-3.39,16.72,0,4.96,1.85,11.56,3.4,16.22ZM242.11,39.31s.02.06.03.1c1.81,5.67,2.72,10.54,2.72,14.5,0,3.56-.92,8.26-2.72,14,0,.02-.01.05-.02.07-1.37-4.38-2.76-9.86-2.76-14.07,0-3.98.93-8.89,2.75-14.6Z"/><path class="cls-5" d="M121.07,85.85c1.59,0,2.88-1.29,2.88-2.88s-1.29-2.88-2.88-2.88-2.88,1.29-2.88,2.88,1.29,2.88,2.88,2.88ZM121.07,81.31c.92,0,1.66.75,1.66,1.66s-.75,1.66-1.66,1.66-1.66-.75-1.66-1.66.75-1.66,1.66-1.66Z"/><path class="cls-5" d="M145.28,85.85c1.59,0,2.88-1.29,2.88-2.88s-1.29-2.88-2.88-2.88-2.88,1.29-2.88,2.88,1.29,2.88,2.88,2.88ZM145.28,81.31c.92,0,1.66.75,1.66,1.66s-.75,1.66-1.66,1.66-1.66-.75-1.66-1.66.75-1.66,1.66-1.66Z"/><path class="cls-5" d="M144.68,70.14l.57,1.72.58-1.72c2.25-6.71,3.39-12.17,3.39-16.23,0-4.51-1.14-10.14-3.39-16.72l-.57-1.67-.57,1.67c-2.25,6.58-3.39,12.21-3.39,16.72,0,4.96,1.85,11.56,3.4,16.22ZM145.25,39.31c1.83,5.71,2.75,10.62,2.75,14.6,0,3.57-.92,8.3-2.75,14.07-1.37-4.38-2.76-9.86-2.76-14.07,0-3.98.93-8.89,2.75-14.6Z"/><path class="cls-5" d="M169.5,85.85c1.59,0,2.88-1.29,2.88-2.88s-1.29-2.88-2.88-2.88-2.88,1.29-2.88,2.88,1.29,2.88,2.88,2.88ZM169.5,81.31c.92,0,1.66.75,1.66,1.66s-.75,1.66-1.66,1.66-1.66-.75-1.66-1.66.75-1.66,1.66-1.66Z"/><path class="cls-5" d="M168.9,70.14l.57,1.72.58-1.72c2.25-6.71,3.39-12.17,3.39-16.23,0-4.51-1.14-10.14-3.39-16.72l-.57-1.67-.57,1.67c-2.25,6.58-3.39,12.21-3.39,16.72,0,4.96,1.85,11.56,3.4,16.22ZM169.47,39.31c1.83,5.71,2.75,10.62,2.75,14.6,0,3.57-.92,8.3-2.75,14.07-1.37-4.38-2.76-9.86-2.76-14.07,0-3.98.93-8.89,2.75-14.6Z"/><path class="cls-5" d="M193.71,85.85c1.59,0,2.88-1.29,2.88-2.88s-1.29-2.88-2.88-2.88-2.88,1.29-2.88,2.88,1.29,2.88,2.88,2.88ZM193.71,81.31c.92,0,1.66.75,1.66,1.66s-.75,1.66-1.66,1.66-1.66-.75-1.66-1.66.75-1.66,1.66-1.66Z"/><path class="cls-5" d="M193.11,70.14l.57,1.72.58-1.72c2.25-6.71,3.39-12.17,3.39-16.23,0-4.51-1.14-10.14-3.39-16.72l-.57-1.67-.57,1.67c-2.25,6.58-3.39,12.21-3.39,16.72,0,4.96,1.85,11.56,3.4,16.22ZM193.68,39.31c1.83,5.71,2.75,10.62,2.75,14.6,0,3.57-.92,8.3-2.75,14.07-1.37-4.38-2.76-9.86-2.76-14.07,0-3.98.93-8.89,2.75-14.6Z"/><path class="cls-5" d="M217.92,85.85c1.59,0,2.88-1.29,2.88-2.88s-1.29-2.88-2.88-2.88-2.88,1.29-2.88,2.88,1.29,2.88,2.88,2.88ZM217.92,81.31c.92,0,1.66.75,1.66,1.66s-.75,1.66-1.66,1.66-1.66-.75-1.66-1.66.75-1.66,1.66-1.66Z"/><path class="cls-5" d="M217.33,70.14l.57,1.72.58-1.72c2.25-6.71,3.39-12.17,3.39-16.23,0-4.51-1.14-10.14-3.39-16.72l-.57-1.67-.57,1.67c-2.25,6.58-3.39,12.21-3.39,16.72,0,4.96,1.85,11.56,3.4,16.22ZM217.89,39.31c1.83,5.71,2.75,10.62,2.75,14.6,0,3.57-.92,8.3-2.75,14.07-1.37-4.38-2.76-9.86-2.76-14.07,0-3.98.93-8.89,2.75-14.6Z"/><path class="cls-5" d="M362.61,70.14l.57,1.72.03-.08.55-1.64c2.25-6.71,3.39-12.17,3.39-16.23,0-4.51-1.14-10.14-3.39-16.72l-.54-1.59-.03-.09-.57,1.67c-2.25,6.58-3.39,12.21-3.39,16.72,0,4.96,1.85,11.56,3.4,16.22ZM363.18,39.31s.02.06.03.1c1.81,5.67,2.72,10.54,2.72,14.5,0,3.56-.92,8.26-2.72,14,0,.02-.01.05-.02.07-1.37-4.38-2.76-9.86-2.76-14.07,0-3.98.93-8.89,2.75-14.6Z"/><path class="cls-5" d="M242.14,85.85c1.59,0,2.88-1.29,2.88-2.88s-1.29-2.88-2.88-2.88-2.88,1.29-2.88,2.88,1.29,2.88,2.88,2.88ZM242.14,81.31c.92,0,1.66.75,1.66,1.66s-.75,1.66-1.66,1.66-1.66-.75-1.66-1.66.75-1.66,1.66-1.66Z"/><path class="cls-5" d="M266.35,85.85c1.59,0,2.88-1.29,2.88-2.88s-1.29-2.88-2.88-2.88-2.88,1.29-2.88,2.88,1.29,2.88,2.88,2.88ZM266.35,81.31c.92,0,1.66.75,1.66,1.66s-.75,1.66-1.66,1.66-1.66-.75-1.66-1.66.75-1.66,1.66-1.66Z"/><path class="cls-5" d="M265.75,70.14l.57,1.72.58-1.72c2.25-6.71,3.39-12.17,3.39-16.23,0-4.51-1.14-10.14-3.39-16.72l-.57-1.67-.57,1.67c-2.25,6.58-3.39,12.21-3.39,16.72,0,4.96,1.85,11.56,3.4,16.22ZM266.32,39.31c1.83,5.71,2.75,10.62,2.75,14.6,0,3.57-.92,8.3-2.75,14.07-1.37-4.38-2.76-9.86-2.76-14.07,0-3.98.93-8.89,2.75-14.6Z"/><path class="cls-5" d="M290.57,85.85c1.59,0,2.88-1.29,2.88-2.88s-1.29-2.88-2.88-2.88-2.88,1.29-2.88,2.88,1.29,2.88,2.88,2.88ZM290.57,81.31c.92,0,1.66.75,1.66,1.66s-.75,1.66-1.66,1.66-1.66-.75-1.66-1.66.75-1.66,1.66-1.66Z"/><path class="cls-5" d="M289.97,70.14l.57,1.72.58-1.72c2.25-6.71,3.39-12.17,3.39-16.23,0-4.51-1.14-10.14-3.39-16.72l-.57-1.67-.57,1.67c-2.25,6.58-3.39,12.21-3.39,16.72,0,4.96,1.85,11.56,3.4,16.22ZM290.54,39.31c1.83,5.71,2.75,10.62,2.75,14.6,0,3.57-.92,8.3-2.75,14.07-1.37-4.38-2.76-9.86-2.76-14.07,0-3.98.93-8.89,2.75-14.6Z"/><path class="cls-5" d="M314.78,85.85c1.59,0,2.88-1.29,2.88-2.88s-1.29-2.88-2.88-2.88-2.88,1.29-2.88,2.88,1.29,2.88,2.88,2.88ZM314.78,81.31c.92,0,1.66.75,1.66,1.66s-.75,1.66-1.66,1.66-1.66-.75-1.66-1.66.75-1.66,1.66-1.66Z"/><path class="cls-5" d="M314.18,70.14l.57,1.72.58-1.72c2.25-6.71,3.39-12.17,3.39-16.23,0-4.51-1.14-10.14-3.39-16.72l-.57-1.67-.57,1.67c-2.25,6.58-3.39,12.21-3.39,16.72,0,4.96,1.85,11.56,3.4,16.22ZM314.75,39.31c1.83,5.71,2.75,10.62,2.75,14.6,0,3.57-.92,8.3-2.75,14.07-1.37-4.38-2.76-9.86-2.76-14.07,0-3.98.93-8.89,2.75-14.6Z"/><path class="cls-5" d="M338.99,85.85c1.59,0,2.88-1.29,2.88-2.88s-1.29-2.88-2.88-2.88-2.88,1.29-2.88,2.88,1.29,2.88,2.88,2.88ZM338.99,81.31c.92,0,1.66.75,1.66,1.66s-.75,1.66-1.66,1.66-1.66-.75-1.66-1.66.75-1.66,1.66-1.66Z"/><path class="cls-5" d="M338.39,70.14l.57,1.72.58-1.72c2.25-6.71,3.39-12.17,3.39-16.23,0-4.51-1.14-10.14-3.39-16.72l-.57-1.67-.57,1.67c-2.25,6.58-3.39,12.21-3.39,16.72,0,4.96,1.85,11.56,3.4,16.22ZM338.96,39.31c1.83,5.71,2.75,10.62,2.75,14.6,0,3.57-.92,8.3-2.75,14.07-1.37-4.38-2.76-9.86-2.76-14.07,0-3.98.93-8.89,2.75-14.6Z"/><path class="cls-5" d="M0,109.83h1.66v15.74H0v1.21h605.34v-1.21h-1.66v-15.74h1.66v-1.21H0v1.21ZM588.04,109.83h14.43v15.74h-14.43v-15.74ZM583.5,109.83h3.33v15.74h-3.33v-15.74ZM567.86,109.83h14.43v15.74h-14.43v-15.74ZM563.32,109.83h3.33v15.74h-3.33v-15.74ZM547.69,109.83h14.43v15.74h-14.43v-15.74ZM543.15,109.83h3.33v15.74h-3.33v-15.74ZM527.51,109.83h14.43v15.74h-14.43v-15.74ZM522.97,109.83h3.33v15.74h-3.33v-15.74ZM507.33,109.83h14.43v15.74h-14.43v-15.74ZM502.79,109.83h3.33v15.74h-3.33v-15.74ZM487.15,109.83h14.43v15.74h-14.43v-15.74ZM482.61,109.83h3.33v15.74h-3.33v-15.74ZM466.97,109.83h14.43v15.74h-14.43v-15.74ZM462.43,109.83h3.33v15.74h-3.33v-15.74ZM446.8,109.83h14.43v15.74h-14.43v-15.74ZM442.26,109.83h3.33v15.74h-3.33v-15.74ZM426.62,109.83h14.43v15.74h-14.43v-15.74ZM422.08,109.83h3.33v15.74h-3.33v-15.74ZM406.44,109.83h14.43v15.74h-14.43v-15.74ZM401.9,109.83h3.33v15.74h-3.33v-15.74ZM386.26,109.83h14.43v15.74h-14.43v-15.74ZM381.72,109.83h3.33v15.74h-3.33v-15.74ZM366.08,109.83h14.43v15.74h-14.43v-15.74ZM361.54,109.83h3.33v15.74h-3.33v-15.74ZM345.9,109.83h14.43v15.74h-14.43v-15.74ZM341.36,109.83h3.33v15.74h-3.33v-15.74ZM325.73,109.83h14.43v15.74h-14.43v-15.74ZM321.19,109.83h3.33v15.74h-3.33v-15.74ZM305.55,109.83h14.43v15.74h-14.43v-15.74ZM301.01,109.83h3.33v15.74h-3.33v-15.74ZM285.37,109.83h14.43v15.74h-14.43v-15.74ZM280.83,109.83h3.33v15.74h-3.33v-15.74ZM265.19,109.83h14.43v15.74h-14.43v-15.74ZM260.65,109.83h3.33v15.74h-3.33v-15.74ZM245.01,109.83h14.43v15.74h-14.43v-15.74ZM240.47,109.83h3.33v15.74h-3.33v-15.74ZM224.84,109.83h14.43v15.74h-14.43v-15.74ZM220.3,109.83h3.33v15.74h-3.33v-15.74ZM204.66,109.83h14.43v15.74h-14.43v-15.74ZM200.12,109.83h3.33v15.74h-3.33v-15.74ZM184.48,109.83h14.43v15.74h-14.43v-15.74ZM179.94,109.83h3.33v15.74h-3.33v-15.74ZM164.3,109.83h14.43v15.74h-14.43v-15.74ZM159.76,109.83h3.33v15.74h-3.33v-15.74ZM144.12,109.83h14.43v15.74h-14.43v-15.74ZM139.58,109.83h3.33v15.74h-3.33v-15.74ZM123.94,109.83h14.43v15.74h-14.43v-15.74ZM119.4,109.83h3.33v15.74h-3.33v-15.74ZM103.77,109.83h14.43v15.74h-14.43v-15.74ZM99.23,109.83h3.33v15.74h-3.33v-15.74ZM83.59,109.83h14.43v15.74h-14.43v-15.74ZM79.05,109.83h3.33v15.74h-3.33v-15.74ZM63.41,109.83h14.43v15.74h-14.43v-15.74ZM58.87,109.83h3.33v15.74h-3.33v-15.74ZM43.23,109.83h14.43v15.74h-14.43v-15.74ZM38.69,109.83h3.33v15.74h-3.33v-15.74ZM23.05,109.83h14.43v15.74h-14.43v-15.74ZM18.51,109.83h3.33v15.74h-3.33v-15.74ZM2.88,109.83h14.43v15.74H2.88v-15.74Z"/><path class="cls-5" d="M483.68,70.14l.57,1.72.03-.08.55-1.64c2.25-6.71,3.39-12.17,3.39-16.23,0-4.51-1.14-10.14-3.39-16.72l-.54-1.59-.03-.09-.57,1.67c-2.25,6.58-3.39,12.21-3.39,16.72,0,4.96,1.85,11.56,3.4,16.22ZM484.25,39.31s.02.06.03.1c1.81,5.67,2.72,10.54,2.72,14.5,0,3.56-.92,8.26-2.72,14,0,.02-.01.05-.02.07-1.37-4.38-2.76-9.86-2.76-14.07,0-3.98.93-8.89,2.75-14.6Z"/><path class="cls-5" d="M0,18.46h6.82c-2.14,2.67-3.53,5.65-4.14,8.89H0v1.21h2.59v2.9H0v1.21h2.77c2.22,5.85,4.79,14.15,4.79,21.24,0,6.35-2.53,14.64-4.74,20.69-.89-.3-1.84-.47-2.83-.47v1.21c4.21,0,7.63,3.42,7.63,7.63s-3.42,7.63-7.63,7.63v1.21c.96,0,1.88-.16,2.75-.44.85,4.32,3.05,8.22,6.3,11.2H0v1.21h605.34v-1.21h-9.05c3.25-2.98,5.45-6.88,6.3-11.2.87.28,1.79.44,2.75.44v-1.21c-4.21,0-7.63-3.42-7.63-7.63s3.42-7.63,7.63-7.63v-1.21c-1.01,0-1.98.17-2.88.49-2.21-6.05-4.74-14.35-4.74-20.71,0-7.06,2.58-15.37,4.8-21.24h2.82v-1.21h-2.64v-2.9h2.64v-1.21h-2.73c-.61-3.28-1.98-6.26-4.09-8.89h6.82v-1.21H0v1.21ZM15.17,102.57c3.25-2.98,5.45-6.88,6.3-11.2.86.28,1.79.44,2.75.44s1.88-.16,2.75-.44c.85,4.32,3.05,8.22,6.3,11.2H15.17ZM26.99,32.68c2.22,5.85,4.79,14.15,4.79,21.24,0,6.35-2.53,14.64-4.74,20.69-.89-.3-1.84-.47-2.83-.47s-1.98.17-2.88.49c-2.21-6.05-4.74-14.35-4.74-20.71,0-7.06,2.58-15.37,4.8-21.24h5.6ZM21.58,31.46v-2.9h5.22v2.9h-5.22ZM24.21,75.34c4.21,0,7.63,3.42,7.63,7.63s-3.42,7.63-7.63,7.63-7.63-3.42-7.63-7.63,3.42-7.63,7.63-7.63ZM39.38,102.57c3.25-2.98,5.45-6.88,6.3-11.2.87.28,1.79.44,2.75.44s1.88-.16,2.75-.44c.85,4.32,3.05,8.22,6.3,11.2h-18.09ZM51.2,32.68c2.22,5.85,4.79,14.15,4.79,21.24,0,6.35-2.53,14.64-4.74,20.69-.89-.3-1.84-.47-2.83-.47s-1.98.17-2.88.49c-2.21-6.05-4.74-14.35-4.74-20.71,0-7.06,2.58-15.37,4.8-21.24h5.6ZM45.79,31.46v-2.9h5.22v2.9h-5.22ZM48.43,75.34c4.21,0,7.63,3.42,7.63,7.63s-3.42,7.63-7.63,7.63-7.63-3.42-7.63-7.63,3.42-7.63,7.63-7.63ZM63.59,102.57c3.25-2.98,5.45-6.88,6.3-11.2.86.28,1.79.44,2.75.44s1.88-.16,2.75-.44c.85,4.32,3.05,8.22,6.3,11.2h-18.09ZM75.41,32.68c2.22,5.85,4.79,14.15,4.79,21.24,0,6.35-2.53,14.64-4.74,20.69-.89-.3-1.84-.47-2.83-.47s-1.98.17-2.88.49c-2.21-6.05-4.74-14.35-4.74-20.71,0-7.06,2.58-15.37,4.8-21.24h5.6ZM70.01,31.46v-2.9h5.22v2.9h-5.22ZM72.64,75.34c4.21,0,7.63,3.42,7.63,7.63s-3.42,7.63-7.63,7.63-7.63-3.42-7.63-7.63,3.42-7.63,7.63-7.63ZM87.81,102.57c3.25-2.98,5.45-6.88,6.3-11.2.87.28,1.79.44,2.75.44s1.88-.16,2.75-.44c.85,4.32,3.05,8.22,6.3,11.2h-18.09ZM99.63,32.68c2.22,5.85,4.79,14.15,4.79,21.24,0,6.35-2.53,14.64-4.74,20.69-.89-.3-1.84-.47-2.83-.47s-1.98.17-2.88.49c-2.21-6.05-4.74-14.35-4.74-20.71,0-7.06,2.58-15.37,4.8-21.24h5.6ZM94.22,31.46v-2.9h5.22v2.9h-5.22ZM96.86,75.34c4.21,0,7.63,3.42,7.63,7.63s-3.42,7.63-7.63,7.63-7.63-3.42-7.63-7.63,3.42-7.63,7.63-7.63ZM112.02,102.57c3.25-2.98,5.45-6.88,6.3-11.2.87.28,1.79.44,2.75.44s1.88-.16,2.75-.44c.85,4.32,3.05,8.22,6.3,11.2h-18.09ZM121.07,32.68h2.77c2.22,5.85,4.79,14.15,4.79,21.24,0,6.35-2.53,14.64-4.74,20.69-.89-.3-1.84-.47-2.83-.47s-1.98.17-2.88.49c-2.21-6.05-4.74-14.35-4.74-20.71,0-7.06,2.58-15.37,4.8-21.24h2.82ZM118.43,31.46v-2.9h5.22v2.9h-5.22ZM121.07,75.34c4.21,0,7.63,3.42,7.63,7.63s-3.42,7.63-7.63,7.63-7.63-3.42-7.63-7.63,3.42-7.63,7.63-7.63ZM136.24,102.57c3.25-2.98,5.45-6.88,6.3-11.2.87.28,1.79.44,2.75.44s1.88-.16,2.75-.44c.85,4.32,3.05,8.22,6.3,11.2h-18.09ZM148.05,32.68c2.22,5.85,4.79,14.15,4.79,21.24,0,6.35-2.53,14.64-4.74,20.69-.89-.3-1.84-.47-2.83-.47s-1.98.17-2.88.49c-2.21-6.05-4.74-14.35-4.74-20.71,0-7.06,2.58-15.37,4.8-21.24h5.6ZM142.65,31.46v-2.9h5.22v2.9h-5.22ZM145.28,75.34c4.21,0,7.63,3.42,7.63,7.63s-3.42,7.63-7.63,7.63-7.63-3.42-7.63-7.63,3.42-7.63,7.63-7.63ZM160.45,102.57c3.25-2.98,5.45-6.88,6.3-11.2.87.28,1.79.44,2.75.44s1.88-.16,2.75-.44c.85,4.32,3.05,8.22,6.3,11.2h-18.09ZM172.27,32.68c2.22,5.85,4.79,14.15,4.79,21.24,0,6.35-2.53,14.64-4.74,20.69-.89-.3-1.84-.47-2.83-.47s-1.98.17-2.88.49c-2.21-6.05-4.74-14.35-4.74-20.71,0-7.06,2.58-15.37,4.8-21.24h5.6ZM166.86,31.46v-2.9h5.22v2.9h-5.22ZM169.5,75.34c4.21,0,7.63,3.42,7.63,7.63s-3.42,7.63-7.63,7.63-7.63-3.42-7.63-7.63,3.42-7.63,7.63-7.63ZM184.66,102.57c3.25-2.98,5.45-6.88,6.3-11.2.86.28,1.79.44,2.75.44s1.88-.16,2.75-.44c.85,4.32,3.05,8.22,6.3,11.2h-18.09ZM196.48,32.68c2.22,5.85,4.79,14.15,4.79,21.24,0,6.35-2.53,14.64-4.74,20.69-.89-.3-1.84-.47-2.83-.47s-1.98.17-2.88.49c-2.21-6.05-4.74-14.35-4.74-20.71,0-7.06,2.58-15.37,4.8-21.24h5.6ZM191.07,31.46v-2.9h5.22v2.9h-5.22ZM193.71,75.34c4.21,0,7.63,3.42,7.63,7.63s-3.42,7.63-7.63,7.63-7.63-3.42-7.63-7.63,3.42-7.63,7.63-7.63ZM208.88,102.57c3.25-2.98,5.45-6.88,6.3-11.2.87.28,1.79.44,2.75.44s1.88-.16,2.75-.44c.85,4.32,3.05,8.22,6.3,11.2h-18.09ZM220.7,32.68c2.22,5.85,4.79,14.15,4.79,21.24,0,6.35-2.53,14.64-4.74,20.69-.89-.3-1.84-.47-2.83-.47s-1.98.17-2.88.49c-2.21-6.05-4.74-14.35-4.74-20.71,0-7.06,2.58-15.37,4.8-21.24h5.6ZM215.29,31.46v-2.9h5.22v2.9h-5.22ZM217.92,75.34c4.21,0,7.63,3.42,7.63,7.63s-3.42,7.63-7.63,7.63-7.63-3.42-7.63-7.63,3.42-7.63,7.63-7.63ZM233.09,102.57c3.25-2.98,5.45-6.88,6.3-11.2.86.28,1.79.44,2.75.44s1.88-.16,2.75-.44c.85,4.32,3.05,8.22,6.3,11.2h-18.09ZM242.14,32.68h2.77c2.22,5.85,4.79,14.15,4.79,21.24,0,6.35-2.53,14.64-4.74,20.69-.89-.3-1.84-.47-2.83-.47s-1.98.17-2.88.49c-2.21-6.05-4.74-14.35-4.74-20.71,0-7.06,2.58-15.37,4.8-21.24h2.82ZM239.5,31.46v-2.9h5.22v2.9h-5.22ZM242.14,75.34c4.21,0,7.63,3.42,7.63,7.63s-3.42,7.63-7.63,7.63-7.63-3.42-7.63-7.63,3.42-7.63,7.63-7.63ZM257.3,102.57c3.25-2.98,5.45-6.88,6.3-11.2.87.28,1.79.44,2.75.44s1.88-.16,2.75-.44c.85,4.32,3.05,8.22,6.3,11.2h-18.09ZM269.12,32.68c2.22,5.85,4.79,14.15,4.79,21.24,0,6.35-2.53,14.64-4.74,20.69-.89-.3-1.84-.47-2.83-.47s-1.98.17-2.88.49c-2.21-6.05-4.74-14.35-4.74-20.71,0-7.06,2.58-15.37,4.8-21.24h5.6ZM263.72,31.46v-2.9h5.22v2.9h-5.22ZM266.35,75.34c4.21,0,7.63,3.42,7.63,7.63s-3.42,7.63-7.63,7.63-7.63-3.42-7.63-7.63,3.42-7.63,7.63-7.63ZM281.52,102.57c3.25-2.98,5.45-6.88,6.3-11.2.87.28,1.79.44,2.75.44s1.88-.16,2.75-.44c.85,4.32,3.05,8.22,6.3,11.2h-18.09ZM293.34,32.68c2.22,5.85,4.79,14.15,4.79,21.24,0,6.35-2.53,14.64-4.74,20.69-.89-.3-1.84-.47-2.83-.47s-1.98.17-2.88.49c-2.21-6.05-4.74-14.35-4.74-20.71,0-7.06,2.58-15.37,4.8-21.24h5.6ZM287.93,31.46v-2.9h5.22v2.9h-5.22ZM290.57,75.34c4.21,0,7.63,3.42,7.63,7.63s-3.42,7.63-7.63,7.63-7.63-3.42-7.63-7.63,3.42-7.63,7.63-7.63ZM305.73,102.57c3.25-2.98,5.45-6.88,6.3-11.2.87.28,1.79.44,2.75.44s1.88-.16,2.75-.44c.85,4.32,3.05,8.22,6.3,11.2h-18.09ZM317.55,32.68c2.22,5.85,4.79,14.15,4.79,21.24,0,6.35-2.53,14.64-4.74,20.69-.89-.3-1.84-.47-2.83-.47s-1.98.17-2.88.49c-2.21-6.05-4.74-14.35-4.74-20.71,0-7.06,2.58-15.37,4.8-21.24h5.6ZM312.14,31.46v-2.9h5.22v2.9h-5.22ZM314.78,75.34c4.21,0,7.63,3.42,7.63,7.63s-3.42,7.63-7.63,7.63-7.63-3.42-7.63-7.63,3.42-7.63,7.63-7.63ZM329.95,102.57c3.25-2.98,5.45-6.88,6.3-11.2.87.28,1.79.44,2.75.44s1.88-.16,2.75-.44c.85,4.32,3.05,8.22,6.3,11.2h-18.09ZM341.77,32.68c2.22,5.85,4.79,14.15,4.79,21.24,0,6.35-2.53,14.64-4.74,20.69-.89-.3-1.84-.47-2.83-.47s-1.98.17-2.88.49c-2.21-6.05-4.74-14.35-4.74-20.71,0-7.06,2.58-15.37,4.8-21.24h5.6ZM336.36,31.46v-2.9h5.22v2.9h-5.22ZM338.99,75.34c4.21,0,7.63,3.42,7.63,7.63s-3.42,7.63-7.63,7.63-7.63-3.42-7.63-7.63,3.42-7.63,7.63-7.63ZM354.16,102.57c3.25-2.98,5.45-6.88,6.3-11.2.87.28,1.79.44,2.75.44s1.88-.16,2.75-.44c.85,4.32,3.05,8.22,6.3,11.2h-18.09ZM363.21,32.68h2.77c2.22,5.85,4.79,14.15,4.79,21.24,0,6.35-2.53,14.64-4.74,20.69-.89-.3-1.84-.47-2.83-.47s-1.98.17-2.88.49c-2.21-6.05-4.74-14.35-4.74-20.71,0-7.06,2.58-15.37,4.8-21.24h2.82ZM360.57,31.46v-2.9h5.22v2.9h-5.22ZM363.21,75.34c4.21,0,7.63,3.42,7.63,7.63s-3.42,7.63-7.63,7.63-7.63-3.42-7.63-7.63,3.42-7.63,7.63-7.63ZM378.37,102.57c3.25-2.98,5.45-6.88,6.3-11.2.87.28,1.79.44,2.75.44s1.88-.16,2.75-.44c.85,4.32,3.05,8.22,6.3,11.2h-18.09ZM390.19,32.68c2.22,5.85,4.79,14.15,4.79,21.24,0,6.35-2.53,14.64-4.74,20.69-.89-.3-1.84-.47-2.83-.47s-1.98.17-2.88.49c-2.21-6.05-4.74-14.35-4.74-20.71,0-7.06,2.58-15.37,4.8-21.24h5.6ZM384.78,31.46v-2.9h5.22v2.9h-5.22ZM387.42,75.34c4.21,0,7.63,3.42,7.63,7.63s-3.42,7.63-7.63,7.63-7.63-3.42-7.63-7.63,3.42-7.63,7.63-7.63ZM402.59,102.57c3.25-2.98,5.45-6.88,6.3-11.2.87.28,1.79.44,2.75.44s1.88-.16,2.75-.44c.85,4.32,3.05,8.22,6.3,11.2h-18.09ZM414.41,32.68c2.22,5.85,4.79,14.15,4.79,21.24,0,6.35-2.53,14.64-4.74,20.69-.89-.3-1.84-.47-2.83-.47s-1.98.17-2.88.49c-2.21-6.05-4.74-14.35-4.74-20.71,0-7.06,2.58-15.37,4.8-21.24h5.59ZM409,31.46v-2.9h5.22v2.9h-5.22ZM411.63,75.34c4.21,0,7.63,3.42,7.63,7.63s-3.42,7.63-7.63,7.63-7.63-3.42-7.63-7.63,3.42-7.63,7.63-7.63ZM426.8,102.57c3.25-2.98,5.45-6.88,6.3-11.2.87.28,1.79.44,2.75.44s1.88-.16,2.75-.44c.85,4.32,3.05,8.22,6.3,11.2h-18.09ZM438.62,32.68c2.22,5.85,4.79,14.15,4.79,21.24,0,6.35-2.53,14.64-4.74,20.69-.89-.3-1.84-.47-2.83-.47s-1.98.17-2.88.49c-2.21-6.05-4.74-14.35-4.74-20.71,0-7.06,2.58-15.37,4.8-21.24h5.59ZM433.21,31.46v-2.9h5.22v2.9h-5.22ZM435.85,75.34c4.21,0,7.63,3.42,7.63,7.63s-3.42,7.63-7.63,7.63-7.63-3.42-7.63-7.63,3.42-7.63,7.63-7.63ZM451.02,102.57c3.25-2.98,5.45-6.88,6.3-11.2.87.28,1.79.44,2.75.44s1.88-.16,2.75-.44c.85,4.32,3.05,8.22,6.3,11.2h-18.09ZM462.83,32.68c2.22,5.85,4.79,14.15,4.79,21.24,0,6.35-2.53,14.64-4.74,20.69-.89-.3-1.84-.47-2.83-.47s-1.98.17-2.88.49c-2.21-6.05-4.74-14.35-4.74-20.71,0-7.06,2.58-15.37,4.8-21.24h5.6ZM457.43,31.46v-2.9h5.22v2.9h-5.22ZM460.06,75.34c4.21,0,7.63,3.42,7.63,7.63s-3.42,7.63-7.63,7.63-7.63-3.42-7.63-7.63,3.42-7.63,7.63-7.63ZM475.23,102.57c3.25-2.98,5.45-6.88,6.3-11.2.87.28,1.79.44,2.75.44s1.88-.16,2.75-.44c.85,4.32,3.05,8.22,6.3,11.2h-18.09ZM484.28,32.68h2.77c2.22,5.85,4.79,14.15,4.79,21.24,0,6.35-2.53,14.64-4.74,20.69-.89-.3-1.84-.47-2.83-.47s-1.98.17-2.88.49c-2.21-6.05-4.74-14.35-4.74-20.71,0-7.06,2.58-15.37,4.8-21.24h2.82ZM481.64,31.46v-2.9h5.22v2.9h-5.22ZM484.28,75.34c4.21,0,7.63,3.42,7.63,7.63s-3.42,7.63-7.63,7.63-7.63-3.42-7.63-7.63,3.42-7.63,7.63-7.63ZM499.44,102.57c3.25-2.98,5.45-6.88,6.3-11.2.87.28,1.79.44,2.75.44s1.88-.16,2.75-.44c.85,4.32,3.05,8.22,6.3,11.2h-18.09ZM511.26,32.68c2.22,5.85,4.79,14.15,4.79,21.24,0,6.35-2.53,14.64-4.74,20.69-.89-.3-1.84-.47-2.83-.47s-1.98.17-2.88.49c-2.21-6.05-4.74-14.35-4.74-20.71,0-7.06,2.58-15.37,4.8-21.24h5.6ZM505.85,31.46v-2.9h5.22v2.9h-5.22ZM508.49,75.34c4.21,0,7.63,3.42,7.63,7.63s-3.42,7.63-7.63,7.63-7.63-3.42-7.63-7.63,3.42-7.63,7.63-7.63ZM523.66,102.57c3.25-2.98,5.45-6.88,6.3-11.2.87.28,1.79.44,2.75.44s1.88-.16,2.75-.44c.85,4.32,3.05,8.22,6.3,11.2h-18.09ZM535.48,32.68c2.22,5.85,4.79,14.15,4.79,21.24,0,6.35-2.53,14.64-4.74,20.69-.89-.3-1.84-.47-2.83-.47s-1.98.17-2.88.49c-2.21-6.05-4.74-14.35-4.74-20.71,0-7.06,2.58-15.37,4.8-21.24h5.6ZM530.07,31.46v-2.9h5.22v2.9h-5.22ZM532.7,75.34c4.21,0,7.63,3.42,7.63,7.63s-3.42,7.63-7.63,7.63-7.63-3.42-7.63-7.63,3.42-7.63,7.63-7.63ZM547.87,102.57c3.25-2.98,5.45-6.88,6.3-11.2.87.28,1.79.44,2.75.44s1.88-.16,2.75-.44c.85,4.32,3.05,8.22,6.3,11.2h-18.09ZM559.69,32.68c2.22,5.85,4.79,14.15,4.79,21.24,0,6.35-2.53,14.64-4.74,20.69-.89-.3-1.84-.47-2.83-.47s-1.98.17-2.88.49c-2.21-6.05-4.74-14.35-4.74-20.71,0-7.06,2.58-15.37,4.8-21.24h5.6ZM554.28,31.46v-2.9h5.22v2.9h-5.22ZM556.92,75.34c4.21,0,7.63,3.42,7.63,7.63s-3.42,7.63-7.63,7.63-7.63-3.42-7.63-7.63,3.42-7.63,7.63-7.63ZM572.08,102.57c3.25-2.98,5.45-6.88,6.3-11.2.87.28,1.79.44,2.75.44s1.88-.16,2.75-.44c.85,4.32,3.05,8.22,6.3,11.2h-18.09ZM583.9,32.68c2.22,5.85,4.79,14.15,4.79,21.24,0,6.35-2.53,14.64-4.74,20.69-.89-.3-1.84-.47-2.83-.47s-1.98.17-2.88.49c-2.21-6.05-4.74-14.35-4.74-20.71,0-7.06,2.58-15.37,4.8-21.24h5.6ZM578.49,31.46v-2.9h5.22v2.9h-5.22ZM581.13,75.34c4.21,0,7.63,3.42,7.63,7.63s-3.42,7.63-7.63,7.63-7.63-3.42-7.63-7.63,3.42-7.63,7.63-7.63ZM596.94,18.46c2.44,2.77,3.98,5.98,4.56,9.55v3.94c-2.29,5.98-4.99,14.6-4.99,21.95,0,6.55,2.59,15.03,4.84,21.18-2.87,1.46-4.84,4.44-4.84,7.88s2.02,6.49,4.95,7.93c-.85,4.61-3.33,8.73-7.02,11.66h-2.4c-3.69-2.94-6.17-7.06-7.02-11.66,2.93-1.44,4.95-4.45,4.95-7.93s-1.99-6.45-4.89-7.9c2.25-6.14,4.83-14.61,4.83-21.15,0-7.39-2.7-15.99-4.98-21.95v-3.94c.57-3.53,2.13-6.74,4.61-9.55h7.4ZM587.95,18.46c-2.14,2.67-3.53,5.65-4.14,8.89h-5.42c-.61-3.28-1.98-6.26-4.09-8.89h13.64ZM572.72,18.46c2.44,2.77,3.98,5.98,4.56,9.55v3.94c-2.29,5.98-4.99,14.6-4.99,21.95,0,6.55,2.59,15.03,4.84,21.18-2.87,1.46-4.84,4.44-4.84,7.88s2.02,6.49,4.95,7.93c-.85,4.61-3.33,8.73-7.02,11.66h-2.4c-3.69-2.94-6.17-7.06-7.02-11.66,2.93-1.44,4.95-4.45,4.95-7.93s-1.99-6.45-4.89-7.9c2.25-6.14,4.83-14.61,4.83-21.15,0-7.39-2.7-15.99-4.98-21.95v-3.94c.57-3.53,2.13-6.74,4.61-9.55h7.4ZM563.74,18.46c-2.14,2.67-3.53,5.65-4.14,8.89h-5.42c-.61-3.28-1.98-6.26-4.09-8.89h13.64ZM548.51,18.46c2.44,2.77,3.98,5.98,4.56,9.55v3.94c-2.29,5.98-4.99,14.6-4.99,21.95,0,6.55,2.59,15.03,4.84,21.18-2.87,1.46-4.84,4.44-4.84,7.88s2.02,6.49,4.95,7.93c-.85,4.61-3.33,8.73-7.02,11.66h-2.4c-3.69-2.94-6.17-7.06-7.02-11.66,2.93-1.44,4.95-4.45,4.95-7.93s-1.99-6.45-4.89-7.9c2.25-6.14,4.83-14.61,4.83-21.15,0-7.39-2.7-15.99-4.98-21.95v-3.94c.57-3.53,2.13-6.74,4.61-9.55h7.4ZM539.52,18.46c-2.14,2.67-3.53,5.65-4.14,8.89h-5.42c-.61-3.28-1.98-6.26-4.09-8.89h13.64ZM524.3,18.46c2.44,2.77,3.98,5.98,4.56,9.55v3.94c-2.29,5.98-4.99,14.6-4.99,21.95,0,6.55,2.59,15.03,4.84,21.18-2.87,1.46-4.84,4.44-4.84,7.88s2.02,6.49,4.95,7.93c-.85,4.61-3.33,8.73-7.02,11.66h-2.4c-3.69-2.94-6.17-7.06-7.02-11.66,2.93-1.44,4.95-4.45,4.95-7.93s-1.99-6.45-4.89-7.9c2.25-6.14,4.83-14.61,4.83-21.15,0-7.39-2.7-15.99-4.98-21.95v-3.94c.57-3.53,2.13-6.74,4.61-9.55h7.4ZM515.31,18.46c-2.14,2.67-3.53,5.65-4.14,8.89h-5.42c-.61-3.28-1.98-6.26-4.09-8.89h13.64ZM500.08,18.46c2.44,2.77,3.98,5.98,4.56,9.55v3.94c-2.29,5.98-4.99,14.6-4.99,21.95,0,6.55,2.59,15.03,4.84,21.18-2.87,1.46-4.84,4.44-4.84,7.88s2.02,6.49,4.95,7.93c-.85,4.61-3.33,8.73-7.02,11.66h-2.4c-3.69-2.94-6.17-7.06-7.02-11.66,2.93-1.44,4.95-4.45,4.95-7.93s-1.99-6.45-4.89-7.9c2.25-6.14,4.83-14.61,4.83-21.15,0-7.39-2.7-15.99-4.98-21.95v-3.94c.57-3.53,2.13-6.74,4.61-9.55h7.4ZM484.28,18.46h6.82c-2.14,2.67-3.53,5.65-4.14,8.89h-5.42c-.61-3.28-1.98-6.26-4.09-8.89h6.82ZM475.87,18.46c2.44,2.77,3.98,5.98,4.56,9.55v3.94c-2.29,5.98-4.99,14.6-4.99,21.95,0,6.55,2.59,15.03,4.84,21.18-2.87,1.46-4.84,4.44-4.84,7.88s2.02,6.49,4.95,7.93c-.85,4.61-3.33,8.73-7.02,11.66h-2.4c-3.69-2.94-6.17-7.06-7.02-11.66,2.93-1.44,4.95-4.45,4.95-7.93s-1.99-6.45-4.89-7.9c2.25-6.14,4.83-14.61,4.83-21.15,0-7.39-2.7-15.99-4.98-21.95v-3.94c.57-3.53,2.13-6.74,4.61-9.55h7.4ZM466.88,18.46c-2.14,2.67-3.53,5.65-4.14,8.89h-5.42c-.61-3.28-1.98-6.26-4.09-8.89h13.64ZM451.65,18.46c2.44,2.77,3.98,5.98,4.56,9.55v3.94c-2.29,5.98-4.99,14.6-4.99,21.95,0,6.55,2.59,15.03,4.84,21.18-2.87,1.46-4.84,4.44-4.84,7.88s2.02,6.49,4.95,7.93c-.85,4.61-3.33,8.73-7.02,11.66h-2.4c-3.69-2.94-6.17-7.06-7.02-11.66,2.93-1.44,4.95-4.45,4.95-7.93s-1.99-6.45-4.89-7.9c2.25-6.14,4.83-14.61,4.83-21.15,0-7.39-2.7-15.99-4.98-21.95v-3.94c.57-3.53,2.13-6.74,4.61-9.55h7.4ZM442.67,18.46c-2.14,2.67-3.53,5.65-4.14,8.89h-5.42c-.61-3.28-1.98-6.26-4.09-8.89h13.64ZM427.44,18.46c2.44,2.77,3.98,5.98,4.56,9.55v3.94c-2.29,5.98-4.99,14.6-4.99,21.95,0,6.55,2.59,15.03,4.84,21.18-2.87,1.46-4.84,4.44-4.84,7.88s2.02,6.49,4.95,7.93c-.85,4.61-3.33,8.73-7.02,11.66h-2.4c-3.69-2.94-6.17-7.06-7.02-11.66,2.93-1.44,4.95-4.45,4.95-7.93s-1.99-6.45-4.89-7.9c2.25-6.14,4.83-14.61,4.83-21.15,0-7.39-2.7-15.99-4.98-21.95v-3.94c.57-3.53,2.13-6.74,4.61-9.55h7.4ZM418.45,18.46c-2.14,2.67-3.53,5.65-4.14,8.89h-5.42c-.61-3.28-1.98-6.26-4.09-8.89h13.64ZM403.23,18.46c2.44,2.77,3.98,5.98,4.56,9.55v3.94c-2.29,5.98-4.99,14.6-4.99,21.95,0,6.55,2.59,15.03,4.84,21.18-2.87,1.46-4.84,4.44-4.84,7.88s2.02,6.49,4.95,7.93c-.85,4.61-3.33,8.73-7.02,11.66h-2.4c-3.69-2.94-6.17-7.06-7.02-11.66,2.93-1.44,4.95-4.45,4.95-7.93s-1.99-6.45-4.89-7.9c2.25-6.14,4.83-14.61,4.83-21.15,0-7.39-2.7-15.99-4.98-21.95v-3.94c.57-3.53,2.13-6.74,4.61-9.55h7.4ZM394.24,18.46c-2.14,2.67-3.53,5.65-4.14,8.89h-5.42c-.61-3.28-1.98-6.26-4.09-8.89h13.64ZM379.01,18.46c2.44,2.77,3.98,5.98,4.56,9.55v3.94c-2.29,5.98-4.99,14.6-4.99,21.95,0,6.55,2.59,15.03,4.84,21.18-2.87,1.46-4.84,4.44-4.84,7.88s2.02,6.49,4.95,7.93c-.85,4.61-3.33,8.73-7.02,11.66h-2.4c-3.69-2.94-6.17-7.06-7.02-11.66,2.93-1.44,4.95-4.45,4.95-7.93s-1.99-6.45-4.89-7.9c2.25-6.14,4.83-14.61,4.83-21.15,0-7.39-2.7-15.99-4.98-21.95v-3.94c.57-3.53,2.13-6.74,4.61-9.55h7.4ZM370.03,18.46c-2.14,2.67-3.53,5.65-4.14,8.89h-5.42c-.61-3.28-1.98-6.26-4.09-8.89h13.64ZM354.8,18.46c2.44,2.77,3.98,5.98,4.56,9.55v3.94c-2.29,5.98-4.99,14.6-4.99,21.95,0,6.55,2.59,15.03,4.84,21.18-2.87,1.46-4.84,4.44-4.84,7.88s2.02,6.49,4.95,7.93c-.85,4.61-3.33,8.73-7.02,11.66h-2.4c-3.69-2.94-6.17-7.06-7.02-11.66,2.93-1.44,4.95-4.45,4.95-7.93s-1.99-6.45-4.89-7.9c2.25-6.14,4.83-14.61,4.83-21.15,0-7.39-2.7-15.99-4.98-21.95v-3.94c.57-3.53,2.13-6.74,4.61-9.55h7.4ZM345.81,18.46c-2.14,2.67-3.53,5.65-4.14,8.89h-5.42c-.61-3.28-1.98-6.26-4.09-8.89h13.64ZM330.59,18.46c2.44,2.77,3.98,5.98,4.56,9.55v3.94c-2.29,5.98-4.99,14.6-4.99,21.95,0,6.55,2.59,15.03,4.84,21.18-2.87,1.46-4.84,4.44-4.84,7.88s2.02,6.49,4.95,7.93c-.85,4.61-3.33,8.73-7.02,11.66h-2.4c-3.69-2.94-6.17-7.06-7.02-11.66,2.93-1.44,4.95-4.45,4.95-7.93s-1.99-6.45-4.89-7.9c2.25-6.14,4.83-14.61,4.83-21.15,0-7.39-2.7-15.99-4.98-21.95v-3.94c.57-3.53,2.13-6.74,4.61-9.55h7.4ZM321.6,18.46c-2.14,2.67-3.53,5.65-4.14,8.89h-5.42c-.61-3.28-1.98-6.26-4.09-8.89h13.64ZM306.37,18.46c2.44,2.77,3.98,5.98,4.56,9.55v3.94c-2.29,5.98-4.99,14.6-4.99,21.95,0,6.55,2.59,15.03,4.84,21.18-2.87,1.46-4.84,4.44-4.84,7.88s2.02,6.49,4.95,7.93c-.85,4.61-3.33,8.73-7.02,11.66h-2.4c-3.69-2.94-6.17-7.06-7.02-11.66,2.93-1.44,4.95-4.45,4.95-7.93s-1.99-6.45-4.89-7.9c2.25-6.14,4.83-14.61,4.83-21.15,0-7.39-2.7-15.99-4.98-21.95v-3.94c.57-3.53,2.13-6.74,4.61-9.55h7.4ZM297.39,18.46c-2.14,2.67-3.53,5.65-4.14,8.89h-5.42c-.61-3.28-1.98-6.26-4.09-8.89h13.64ZM282.16,18.46c2.44,2.77,3.98,5.98,4.56,9.55v3.94c-2.29,5.98-4.99,14.6-4.99,21.95,0,6.55,2.59,15.03,4.84,21.18-2.87,1.46-4.84,4.44-4.84,7.88s2.02,6.49,4.95,7.93c-.85,4.61-3.33,8.73-7.02,11.66h-2.4c-3.69-2.94-6.17-7.06-7.02-11.66,2.93-1.44,4.95-4.45,4.95-7.93s-1.99-6.45-4.89-7.9c2.25-6.14,4.83-14.61,4.83-21.15,0-7.39-2.7-15.99-4.98-21.95v-3.94c.57-3.53,2.13-6.74,4.61-9.55h7.4ZM273.17,18.46c-2.14,2.67-3.53,5.65-4.14,8.89h-5.42c-.61-3.28-1.98-6.26-4.09-8.89h13.64ZM257.94,18.46c2.44,2.77,3.98,5.98,4.56,9.55v3.94c-2.29,5.98-4.99,14.6-4.99,21.95,0,6.55,2.59,15.03,4.84,21.18-2.87,1.46-4.84,4.44-4.84,7.88s2.02,6.49,4.95,7.93c-.85,4.61-3.33,8.73-7.02,11.66h-2.4c-3.69-2.94-6.17-7.06-7.02-11.66,2.93-1.44,4.95-4.45,4.95-7.93s-1.99-6.45-4.89-7.9c2.25-6.14,4.83-14.61,4.83-21.15,0-7.39-2.7-15.99-4.98-21.95v-3.94c.57-3.53,2.13-6.74,4.61-9.55h7.4ZM248.96,18.46c-2.14,2.67-3.53,5.65-4.14,8.89h-5.42c-.61-3.28-1.98-6.26-4.09-8.89h13.64ZM233.73,18.46c2.44,2.77,3.98,5.98,4.56,9.55v3.94c-2.29,5.98-4.99,14.6-4.99,21.95,0,6.55,2.59,15.03,4.84,21.18-2.87,1.46-4.84,4.44-4.84,7.88s2.02,6.49,4.95,7.93c-.85,4.61-3.33,8.73-7.02,11.66h-2.4c-3.69-2.94-6.17-7.06-7.02-11.66,2.93-1.44,4.95-4.45,4.95-7.93s-1.99-6.45-4.89-7.9c2.25-6.14,4.83-14.61,4.83-21.15,0-7.39-2.7-15.99-4.98-21.95v-3.94c.57-3.53,2.13-6.74,4.61-9.55h7.4ZM224.74,18.46c-2.14,2.67-3.53,5.65-4.14,8.89h-5.42c-.61-3.28-1.98-6.26-4.09-8.89h13.64ZM209.52,18.46c2.44,2.77,3.98,5.98,4.56,9.55v3.94c-2.29,5.98-4.99,14.6-4.99,21.95,0,6.55,2.59,15.03,4.84,21.18-2.87,1.46-4.84,4.44-4.84,7.88s2.02,6.49,4.95,7.93c-.85,4.61-3.33,8.73-7.02,11.66h-2.4c-3.69-2.94-6.17-7.06-7.02-11.66,2.93-1.44,4.95-4.45,4.95-7.93s-1.99-6.45-4.89-7.9c2.25-6.14,4.83-14.61,4.83-21.15,0-7.39-2.7-15.99-4.98-21.95v-3.94c.57-3.53,2.13-6.74,4.61-9.55h7.4ZM200.53,18.46c-2.14,2.67-3.53,5.65-4.14,8.89h-5.42c-.61-3.28-1.98-6.26-4.09-8.89h13.64ZM185.3,18.46c2.44,2.77,3.98,5.98,4.56,9.55v3.94c-2.29,5.98-4.99,14.6-4.99,21.95,0,6.55,2.59,15.03,4.84,21.18-2.87,1.46-4.84,4.44-4.84,7.88s2.02,6.49,4.95,7.93c-.85,4.61-3.33,8.73-7.02,11.66h-2.4c-3.69-2.94-6.17-7.06-7.02-11.66,2.93-1.44,4.95-4.45,4.95-7.93s-1.99-6.45-4.89-7.9c2.25-6.14,4.83-14.61,4.83-21.15,0-7.39-2.7-15.99-4.98-21.95v-3.94c.57-3.53,2.13-6.74,4.61-9.55h7.4ZM176.32,18.46c-2.14,2.67-3.53,5.65-4.14,8.89h-5.42c-.61-3.28-1.98-6.26-4.09-8.89h13.64ZM161.09,18.46c2.44,2.77,3.98,5.98,4.56,9.55v3.94c-2.29,5.98-4.99,14.6-4.99,21.95,0,6.55,2.59,15.03,4.84,21.18-2.87,1.46-4.84,4.44-4.84,7.88s2.02,6.49,4.95,7.93c-.85,4.61-3.33,8.73-7.02,11.66h-2.4c-3.69-2.94-6.17-7.06-7.02-11.66,2.93-1.44,4.95-4.45,4.95-7.93s-1.99-6.45-4.89-7.9c2.25-6.14,4.83-14.61,4.83-21.15,0-7.39-2.7-15.99-4.98-21.95v-3.94c.57-3.53,2.13-6.74,4.61-9.55h7.4ZM152.1,18.46c-2.14,2.67-3.53,5.65-4.14,8.89h-5.42c-.61-3.28-1.98-6.26-4.09-8.89h13.64ZM136.87,18.46c2.44,2.77,3.98,5.98,4.56,9.55v3.94c-2.29,5.98-4.99,14.6-4.99,21.95,0,6.55,2.59,15.03,4.84,21.18-2.87,1.46-4.84,4.44-4.84,7.88s2.02,6.49,4.95,7.93c-.85,4.61-3.33,8.73-7.02,11.66h-2.4c-3.69-2.94-6.17-7.06-7.02-11.66,2.93-1.44,4.95-4.45,4.95-7.93s-1.99-6.45-4.89-7.9c2.25-6.14,4.83-14.61,4.83-21.15,0-7.39-2.7-15.99-4.98-21.95v-3.94c.57-3.53,2.13-6.74,4.61-9.55h7.4ZM127.89,18.46c-2.14,2.67-3.53,5.65-4.14,8.89h-5.42c-.61-3.28-1.98-6.26-4.09-8.89h13.64ZM112.66,18.46c2.44,2.77,3.98,5.98,4.56,9.55v3.94c-2.29,5.98-4.99,14.6-4.99,21.95,0,6.55,2.59,15.03,4.84,21.18-2.87,1.46-4.84,4.44-4.84,7.88s2.02,6.49,4.95,7.93c-.85,4.61-3.33,8.73-7.02,11.66h-2.4c-3.69-2.94-6.17-7.06-7.02-11.66,2.93-1.44,4.95-4.45,4.95-7.93s-1.99-6.45-4.89-7.9c2.25-6.14,4.83-14.61,4.83-21.15,0-7.39-2.7-15.99-4.98-21.95v-3.94c.57-3.53,2.13-6.74,4.61-9.55h7.4ZM103.68,18.46c-2.14,2.67-3.53,5.65-4.14,8.89h-5.42c-.61-3.28-1.98-6.26-4.09-8.89h13.64ZM88.45,18.46c2.44,2.77,3.98,5.98,4.56,9.55v3.94c-2.29,5.98-4.99,14.6-4.99,21.95,0,6.55,2.59,15.03,4.84,21.18-2.87,1.46-4.84,4.44-4.84,7.88s2.02,6.49,4.95,7.93c-.85,4.61-3.33,8.73-7.02,11.66h-2.4c-3.69-2.94-6.17-7.06-7.02-11.66,2.93-1.44,4.95-4.45,4.95-7.93s-1.99-6.45-4.89-7.9c2.25-6.14,4.83-14.61,4.83-21.15,0-7.39-2.7-15.99-4.98-21.95v-3.94c.57-3.53,2.13-6.74,4.61-9.55h7.4ZM79.46,18.46c-2.14,2.67-3.53,5.65-4.14,8.89h-5.42c-.61-3.28-1.98-6.26-4.09-8.89h13.64ZM64.23,18.46c2.44,2.77,3.98,5.98,4.56,9.55v3.94c-2.29,5.98-4.99,14.6-4.99,21.95,0,6.55,2.59,15.03,4.84,21.18-2.87,1.46-4.84,4.44-4.84,7.88s2.02,6.49,4.95,7.93c-.85,4.61-3.33,8.73-7.02,11.66h-2.4c-3.69-2.94-6.17-7.06-7.02-11.66,2.93-1.44,4.95-4.45,4.95-7.93s-1.99-6.45-4.89-7.9c2.25-6.14,4.83-14.61,4.83-21.15,0-7.39-2.7-15.99-4.98-21.95v-3.94c.57-3.53,2.13-6.74,4.61-9.55h7.4ZM55.25,18.46c-2.14,2.67-3.53,5.65-4.14,8.89h-5.42c-.61-3.28-1.98-6.26-4.09-8.89h13.64ZM40.02,18.46c2.44,2.77,3.98,5.98,4.56,9.55v3.94c-2.29,5.98-4.99,14.6-4.99,21.95,0,6.55,2.59,15.03,4.84,21.18-2.87,1.46-4.84,4.44-4.84,7.88s2.02,6.49,4.95,7.93c-.85,4.61-3.33,8.73-7.02,11.66h-2.4c-3.69-2.94-6.17-7.06-7.02-11.66,2.93-1.44,4.95-4.45,4.95-7.93s-1.99-6.45-4.89-7.9c2.25-6.14,4.83-14.61,4.83-21.15,0-7.39-2.7-15.99-4.98-21.95v-3.94c.57-3.53,2.13-6.74,4.61-9.55h7.4ZM31.03,18.46c-2.14,2.67-3.53,5.65-4.14,8.89h-5.42c-.61-3.28-1.98-6.26-4.09-8.89h13.64ZM15.81,18.46c2.44,2.77,3.98,5.98,4.56,9.55v3.94c-2.29,5.98-4.99,14.6-4.99,21.95,0,6.55,2.59,15.03,4.84,21.18-2.87,1.46-4.84,4.44-4.84,7.88s2.02,6.49,4.95,7.93c-.85,4.61-3.33,8.73-7.02,11.66h-2.4c-3.69-2.94-6.17-7.06-7.02-11.66,2.93-1.44,4.95-4.45,4.95-7.93s-1.99-6.45-4.89-7.9c2.25-6.14,4.83-14.61,4.83-21.15,0-7.39-2.7-15.99-4.98-21.95v-3.94c.57-3.53,2.13-6.74,4.61-9.55h7.4Z"/><path class="cls-5" d="M363.21,85.85c1.59,0,2.88-1.29,2.88-2.88s-1.29-2.88-2.88-2.88-2.88,1.29-2.88,2.88,1.29,2.88,2.88,2.88ZM363.21,81.31c.92,0,1.66.75,1.66,1.66s-.75,1.66-1.66,1.66-1.66-.75-1.66-1.66.75-1.66,1.66-1.66Z"/><path class="cls-5" d="M387.42,85.85c1.59,0,2.88-1.29,2.88-2.88s-1.29-2.88-2.88-2.88-2.88,1.29-2.88,2.88,1.29,2.88,2.88,2.88ZM387.42,81.31c.92,0,1.66.75,1.66,1.66s-.75,1.66-1.66,1.66-1.66-.75-1.66-1.66.75-1.66,1.66-1.66Z"/><path class="cls-5" d="M386.82,70.14l.57,1.72.58-1.72c2.25-6.71,3.39-12.17,3.39-16.23,0-4.51-1.14-10.14-3.39-16.72l-.57-1.67-.57,1.67c-2.25,6.58-3.39,12.21-3.39,16.72,0,4.96,1.85,11.56,3.4,16.22ZM387.39,39.31c1.83,5.71,2.75,10.62,2.75,14.6,0,3.57-.92,8.3-2.75,14.07-1.37-4.38-2.76-9.86-2.76-14.07,0-3.98.93-8.89,2.75-14.6Z"/><path class="cls-5" d="M411.63,85.85c1.59,0,2.88-1.29,2.88-2.88s-1.29-2.88-2.88-2.88-2.88,1.29-2.88,2.88,1.29,2.88,2.88,2.88ZM411.63,81.31c.92,0,1.66.75,1.66,1.66s-.75,1.66-1.66,1.66-1.66-.75-1.66-1.66.75-1.66,1.66-1.66Z"/><path class="cls-5" d="M411.04,70.14l.57,1.72.58-1.72c2.25-6.71,3.39-12.17,3.39-16.23,0-4.51-1.14-10.14-3.39-16.72l-.57-1.67-.57,1.67c-2.25,6.58-3.39,12.21-3.39,16.72,0,4.96,1.85,11.56,3.4,16.22ZM411.6,39.31c1.83,5.71,2.75,10.62,2.75,14.6,0,3.57-.92,8.3-2.75,14.07-1.37-4.38-2.76-9.86-2.76-14.07,0-3.98.93-8.89,2.75-14.6Z"/><path class="cls-5" d="M435.85,85.85c1.59,0,2.88-1.29,2.88-2.88s-1.29-2.88-2.88-2.88-2.88,1.29-2.88,2.88,1.29,2.88,2.88,2.88ZM435.85,81.31c.92,0,1.66.75,1.66,1.66s-.75,1.66-1.66,1.66-1.66-.75-1.66-1.66.75-1.66,1.66-1.66Z"/><path class="cls-5" d="M435.25,70.14l.57,1.72.58-1.72c2.25-6.71,3.39-12.17,3.39-16.23,0-4.51-1.14-10.14-3.39-16.72l-.57-1.67-.57,1.67c-2.25,6.58-3.39,12.21-3.39,16.72,0,4.96,1.85,11.56,3.4,16.22ZM435.82,39.31c1.83,5.71,2.75,10.62,2.75,14.6,0,3.57-.92,8.3-2.75,14.07-1.37-4.38-2.76-9.86-2.76-14.07,0-3.98.93-8.89,2.75-14.6Z"/><path class="cls-5" d="M460.06,85.85c1.59,0,2.88-1.29,2.88-2.88s-1.29-2.88-2.88-2.88-2.88,1.29-2.88,2.88,1.29,2.88,2.88,2.88ZM460.06,81.31c.92,0,1.66.75,1.66,1.66s-.75,1.66-1.66,1.66-1.66-.75-1.66-1.66.75-1.66,1.66-1.66Z"/><path class="cls-5" d="M459.46,70.14l.57,1.72.58-1.72c2.25-6.71,3.39-12.17,3.39-16.23,0-4.51-1.14-10.14-3.39-16.72l-.57-1.67-.57,1.67c-2.25,6.58-3.39,12.21-3.39,16.72,0,4.96,1.85,11.56,3.4,16.22ZM460.03,39.31c1.83,5.71,2.75,10.62,2.75,14.6,0,3.57-.92,8.3-2.75,14.07-1.37-4.38-2.76-9.86-2.76-14.07,0-3.98.93-8.89,2.75-14.6Z"/><path class="cls-5" d="M602.47,82.97c0,1.59,1.29,2.88,2.88,2.88v-1.21c-.92,0-1.66-.75-1.66-1.66s.75-1.66,1.66-1.66v-1.21c-1.59,0-2.88,1.29-2.88,2.88Z"/><path class="cls-5" d="M604.74,37.19c-2.25,6.58-3.39,12.21-3.39,16.72,0,4.96,1.85,11.56,3.4,16.22l.57,1.72.03-.08v-3.87s-.01.05-.02.07c-1.37-4.38-2.76-9.86-2.76-14.07,0-3.98.93-8.89,2.75-14.6.01.03.02.06.03.1v-3.8l-.03-.09-.57,1.67Z"/><path class="cls-5" d="M484.28,85.85c1.59,0,2.88-1.29,2.88-2.88s-1.29-2.88-2.88-2.88-2.88,1.29-2.88,2.88,1.29,2.88,2.88,2.88ZM484.28,81.31c.92,0,1.66.75,1.66,1.66s-.75,1.66-1.66,1.66-1.66-.75-1.66-1.66.75-1.66,1.66-1.66Z"/><path class="cls-5" d="M508.49,85.85c1.59,0,2.88-1.29,2.88-2.88s-1.29-2.88-2.88-2.88-2.88,1.29-2.88,2.88,1.29,2.88,2.88,2.88ZM508.49,81.31c.92,0,1.66.75,1.66,1.66s-.75,1.66-1.66,1.66-1.66-.75-1.66-1.66.75-1.66,1.66-1.66Z"/><path class="cls-5" d="M507.89,70.14l.57,1.72.58-1.72c2.25-6.71,3.39-12.17,3.39-16.23,0-4.51-1.14-10.14-3.39-16.72l-.57-1.67-.57,1.67c-2.25,6.58-3.39,12.21-3.39,16.72,0,4.96,1.85,11.56,3.4,16.22ZM508.46,39.31c1.83,5.71,2.75,10.62,2.75,14.6,0,3.57-.92,8.3-2.75,14.07-1.37-4.38-2.76-9.86-2.76-14.07,0-3.98.93-8.89,2.75-14.6Z"/><path class="cls-5" d="M532.7,85.85c1.59,0,2.88-1.29,2.88-2.88s-1.29-2.88-2.88-2.88-2.88,1.29-2.88,2.88,1.29,2.88,2.88,2.88ZM532.7,81.31c.92,0,1.66.75,1.66,1.66s-.75,1.66-1.66,1.66-1.66-.75-1.66-1.66.75-1.66,1.66-1.66Z"/><path class="cls-5" d="M532.1,70.14l.57,1.72.58-1.72c2.25-6.71,3.39-12.17,3.39-16.23,0-4.51-1.14-10.14-3.39-16.72l-.57-1.67-.57,1.67c-2.25,6.58-3.39,12.21-3.39,16.72,0,4.96,1.85,11.56,3.4,16.22ZM532.67,39.31c1.83,5.71,2.75,10.62,2.75,14.6,0,3.57-.92,8.3-2.75,14.07-1.37-4.38-2.76-9.86-2.76-14.07,0-3.98.93-8.89,2.75-14.6Z"/><path class="cls-5" d="M556.92,85.85c1.59,0,2.88-1.29,2.88-2.88s-1.29-2.88-2.88-2.88-2.88,1.29-2.88,2.88,1.29,2.88,2.88,2.88ZM556.92,81.31c.92,0,1.66.75,1.66,1.66s-.75,1.66-1.66,1.66-1.66-.75-1.66-1.66.75-1.66,1.66-1.66Z"/><path class="cls-5" d="M556.32,70.14l.57,1.72.58-1.72c2.25-6.71,3.39-12.17,3.39-16.23,0-4.51-1.14-10.14-3.39-16.72l-.57-1.67-.57,1.67c-2.25,6.58-3.39,12.21-3.39,16.72,0,4.96,1.85,11.56,3.4,16.22ZM556.89,39.31c1.83,5.71,2.75,10.62,2.75,14.6,0,3.57-.92,8.3-2.75,14.07-1.37-4.38-2.76-9.86-2.76-14.07,0-3.98.93-8.89,2.75-14.6Z"/><path class="cls-5" d="M581.13,85.85c1.59,0,2.88-1.29,2.88-2.88s-1.29-2.88-2.88-2.88-2.88,1.29-2.88,2.88,1.29,2.88,2.88,2.88ZM581.13,81.31c.92,0,1.66.75,1.66,1.66s-.75,1.66-1.66,1.66-1.66-.75-1.66-1.66.75-1.66,1.66-1.66Z"/><path class="cls-5" d="M580.53,70.14l.57,1.72.58-1.72c2.25-6.71,3.39-12.17,3.39-16.23,0-4.51-1.14-10.14-3.39-16.72l-.57-1.67-.57,1.67c-2.25,6.58-3.39,12.21-3.39,16.72,0,4.96,1.85,11.56,3.4,16.22ZM581.1,39.31c1.83,5.71,2.75,10.62,2.75,14.6,0,3.57-.92,8.3-2.75,14.07-1.37-4.38-2.76-9.86-2.76-14.07,0-3.98.93-8.89,2.75-14.6Z"/><rect class="cls-2" y="1.21" width="605.34" height="9.99"/><rect class="cls-1" y="12.41" width="605.34" height="4.84"/><rect class="cls-6" y="126.78" width="605.34" height="4.85"/><rect class="cls-1" y="132.84" width="605.34" height="9.62"/><rect class="cls-6" y="103.78" width="605.34" height="4.84"/><path class="cls-1" d="M282.94,82.97c0,4.21,3.42,7.63,7.63,7.63s7.63-3.42,7.63-7.63-3.42-7.63-7.63-7.63-7.63,3.42-7.63,7.63ZM290.57,80.1c1.59,0,2.88,1.29,2.88,2.88s-1.29,2.88-2.88,2.88-2.88-1.29-2.88-2.88,1.29-2.88,2.88-2.88Z"/><path class="cls-1" d="M307.15,82.97c0,4.21,3.42,7.63,7.63,7.63s7.63-3.42,7.63-7.63-3.42-7.63-7.63-7.63-7.63,3.42-7.63,7.63ZM314.78,80.1c1.59,0,2.88,1.29,2.88,2.88s-1.29,2.88-2.88,2.88-2.88-1.29-2.88-2.88,1.29-2.88,2.88-2.88Z"/><path class="cls-1" d="M234.51,82.97c0,4.21,3.42,7.63,7.63,7.63s7.63-3.42,7.63-7.63-3.42-7.63-7.63-7.63-7.63,3.42-7.63,7.63ZM242.14,80.1c1.59,0,2.88,1.29,2.88,2.88s-1.29,2.88-2.88,2.88-2.88-1.29-2.88-2.88,1.29-2.88,2.88-2.88Z"/><path class="cls-1" d="M258.73,82.97c0,4.21,3.42,7.63,7.63,7.63s7.63-3.42,7.63-7.63-3.42-7.63-7.63-7.63-7.63,3.42-7.63,7.63ZM266.35,80.1c1.59,0,2.88,1.29,2.88,2.88s-1.29,2.88-2.88,2.88-2.88-1.29-2.88-2.88,1.29-2.88,2.88-2.88Z"/><path class="cls-1" d="M379.79,82.97c0,4.21,3.42,7.63,7.63,7.63s7.63-3.42,7.63-7.63-3.42-7.63-7.63-7.63-7.63,3.42-7.63,7.63ZM387.42,80.1c1.59,0,2.88,1.29,2.88,2.88s-1.29,2.88-2.88,2.88-2.88-1.29-2.88-2.88,1.29-2.88,2.88-2.88Z"/><path class="cls-1" d="M404.01,82.97c0,4.21,3.42,7.63,7.63,7.63s7.63-3.42,7.63-7.63-3.42-7.63-7.63-7.63-7.63,3.42-7.63,7.63ZM411.63,80.1c1.59,0,2.88,1.29,2.88,2.88s-1.29,2.88-2.88,2.88-2.88-1.29-2.88-2.88,1.29-2.88,2.88-2.88Z"/><path class="cls-1" d="M331.37,82.97c0,4.21,3.42,7.63,7.63,7.63s7.63-3.42,7.63-7.63-3.42-7.63-7.63-7.63-7.63,3.42-7.63,7.63ZM338.99,80.1c1.59,0,2.88,1.29,2.88,2.88s-1.29,2.88-2.88,2.88-2.88-1.29-2.88-2.88,1.29-2.88,2.88-2.88Z"/><path class="cls-1" d="M355.58,82.97c0,4.21,3.42,7.63,7.63,7.63s7.63-3.42,7.63-7.63-3.42-7.63-7.63-7.63-7.63,3.42-7.63,7.63ZM363.21,80.1c1.59,0,2.88,1.29,2.88,2.88s-1.29,2.88-2.88,2.88-2.88-1.29-2.88-2.88,1.29-2.88,2.88-2.88Z"/><path class="cls-1" d="M89.23,82.97c0,4.21,3.42,7.63,7.63,7.63s7.63-3.42,7.63-7.63-3.42-7.63-7.63-7.63-7.63,3.42-7.63,7.63ZM96.86,80.1c1.59,0,2.88,1.29,2.88,2.88s-1.29,2.88-2.88,2.88-2.88-1.29-2.88-2.88,1.29-2.88,2.88-2.88Z"/><path class="cls-1" d="M113.44,82.97c0,4.21,3.42,7.63,7.63,7.63s7.63-3.42,7.63-7.63-3.42-7.63-7.63-7.63-7.63,3.42-7.63,7.63ZM121.07,80.1c1.59,0,2.88,1.29,2.88,2.88s-1.29,2.88-2.88,2.88-2.88-1.29-2.88-2.88,1.29-2.88,2.88-2.88Z"/><path class="cls-1" d="M40.8,82.97c0,4.21,3.42,7.63,7.63,7.63s7.63-3.42,7.63-7.63-3.42-7.63-7.63-7.63-7.63,3.42-7.63,7.63ZM48.43,80.1c1.59,0,2.88,1.29,2.88,2.88s-1.29,2.88-2.88,2.88-2.88-1.29-2.88-2.88,1.29-2.88,2.88-2.88Z"/><path class="cls-1" d="M65.01,82.97c0,4.21,3.42,7.63,7.63,7.63s7.63-3.42,7.63-7.63-3.42-7.63-7.63-7.63-7.63,3.42-7.63,7.63ZM72.64,80.1c1.59,0,2.88,1.29,2.88,2.88s-1.29,2.88-2.88,2.88-2.88-1.29-2.88-2.88,1.29-2.88,2.88-2.88Z"/><path class="cls-1" d="M186.08,82.97c0,4.21,3.42,7.63,7.63,7.63s7.63-3.42,7.63-7.63-3.42-7.63-7.63-7.63-7.63,3.42-7.63,7.63ZM193.71,80.1c1.59,0,2.88,1.29,2.88,2.88s-1.29,2.88-2.88,2.88-2.88-1.29-2.88-2.88,1.29-2.88,2.88-2.88Z"/><path class="cls-1" d="M210.3,82.97c0,4.21,3.42,7.63,7.63,7.63s7.63-3.42,7.63-7.63-3.42-7.63-7.63-7.63-7.63,3.42-7.63,7.63ZM217.92,80.1c1.59,0,2.88,1.29,2.88,2.88s-1.29,2.88-2.88,2.88-2.88-1.29-2.88-2.88,1.29-2.88,2.88-2.88Z"/><path class="cls-1" d="M137.66,82.97c0,4.21,3.42,7.63,7.63,7.63s7.63-3.42,7.63-7.63-3.42-7.63-7.63-7.63-7.63,3.42-7.63,7.63ZM145.28,80.1c1.59,0,2.88,1.29,2.88,2.88s-1.29,2.88-2.88,2.88-2.88-1.29-2.88-2.88,1.29-2.88,2.88-2.88Z"/><path class="cls-1" d="M161.87,82.97c0,4.21,3.42,7.63,7.63,7.63s7.63-3.42,7.63-7.63-3.42-7.63-7.63-7.63-7.63,3.42-7.63,7.63ZM169.5,80.1c1.59,0,2.88,1.29,2.88,2.88s-1.29,2.88-2.88,2.88-2.88-1.29-2.88-2.88,1.29-2.88,2.88-2.88Z"/><path class="cls-1" d="M476.65,82.97c0,4.21,3.42,7.63,7.63,7.63s7.63-3.42,7.63-7.63-3.42-7.63-7.63-7.63-7.63,3.42-7.63,7.63ZM484.28,80.1c1.59,0,2.88,1.29,2.88,2.88s-1.29,2.88-2.88,2.88-2.88-1.29-2.88-2.88,1.29-2.88,2.88-2.88Z"/><path class="cls-1" d="M500.86,82.97c0,4.21,3.42,7.63,7.63,7.63s7.63-3.42,7.63-7.63-3.42-7.63-7.63-7.63-7.63,3.42-7.63,7.63ZM508.49,80.1c1.59,0,2.88,1.29,2.88,2.88s-1.29,2.88-2.88,2.88-2.88-1.29-2.88-2.88,1.29-2.88,2.88-2.88Z"/><path class="cls-1" d="M428.22,82.97c0,4.21,3.42,7.63,7.63,7.63s7.63-3.42,7.63-7.63-3.42-7.63-7.63-7.63-7.63,3.42-7.63,7.63ZM435.85,80.1c1.59,0,2.88,1.29,2.88,2.88s-1.29,2.88-2.88,2.88-2.88-1.29-2.88-2.88,1.29-2.88,2.88-2.88Z"/><path class="cls-1" d="M452.44,82.97c0,4.21,3.42,7.63,7.63,7.63s7.63-3.42,7.63-7.63-3.42-7.63-7.63-7.63-7.63,3.42-7.63,7.63ZM460.06,80.1c1.59,0,2.88,1.29,2.88,2.88s-1.29,2.88-2.88,2.88-2.88-1.29-2.88-2.88,1.29-2.88,2.88-2.88Z"/><path class="cls-1" d="M573.5,82.97c0,4.21,3.42,7.63,7.63,7.63s7.63-3.42,7.63-7.63-3.42-7.63-7.63-7.63-7.63,3.42-7.63,7.63ZM581.13,80.1c1.59,0,2.88,1.29,2.88,2.88s-1.29,2.88-2.88,2.88-2.88-1.29-2.88-2.88,1.29-2.88,2.88-2.88Z"/><path class="cls-1" d="M525.08,82.97c0,4.21,3.42,7.63,7.63,7.63s7.63-3.42,7.63-7.63-3.42-7.63-7.63-7.63-7.63,3.42-7.63,7.63ZM532.7,80.1c1.59,0,2.88,1.29,2.88,2.88s-1.29,2.88-2.88,2.88-2.88-1.29-2.88-2.88,1.29-2.88,2.88-2.88Z"/><path class="cls-1" d="M549.29,82.97c0,4.21,3.42,7.63,7.63,7.63s7.63-3.42,7.63-7.63-3.42-7.63-7.63-7.63-7.63,3.42-7.63,7.63ZM556.92,80.1c1.59,0,2.88,1.29,2.88,2.88s-1.29,2.88-2.88,2.88-2.88-1.29-2.88-2.88,1.29-2.88,2.88-2.88Z"/><path class="cls-1" d="M7.63,82.97c0-4.21-3.42-7.63-7.63-7.63v4.75c1.59,0,2.88,1.29,2.88,2.88s-1.29,2.88-2.88,2.88v4.75c4.21,0,7.63-3.42,7.63-7.63Z"/><path class="cls-1" d="M16.59,82.97c0,4.21,3.42,7.63,7.63,7.63s7.63-3.42,7.63-7.63-3.42-7.63-7.63-7.63-7.63,3.42-7.63,7.63ZM24.21,80.1c1.59,0,2.88,1.29,2.88,2.88s-1.29,2.88-2.88,2.88-2.88-1.29-2.88-2.88,1.29-2.88,2.88-2.88Z"/><path class="cls-1" d="M597.72,82.97c0,4.21,3.42,7.63,7.63,7.63v-4.75c-1.59,0-2.88-1.29-2.88-2.88s1.29-2.88,2.88-2.88v-4.75c-4.21,0-7.63,3.42-7.63,7.63Z"/><circle class="cls-1" cx="290.57" cy="82.97" r="1.66"/><path class="cls-1" d="M314.78,84.64c.92,0,1.66-.75,1.66-1.66s-.75-1.66-1.66-1.66-1.66.75-1.66,1.66.75,1.66,1.66,1.66Z"/><circle class="cls-1" cx="242.14" cy="82.97" r="1.66"/><circle class="cls-1" cx="266.35" cy="82.97" r="1.66"/><circle class="cls-1" cx="387.42" cy="82.97" r="1.66"/><circle class="cls-1" cx="411.63" cy="82.97" r="1.66"/><circle class="cls-1" cx="338.99" cy="82.97" r="1.66"/><path class="cls-1" d="M363.21,84.64c.92,0,1.66-.75,1.66-1.66s-.75-1.66-1.66-1.66-1.66.75-1.66,1.66.75,1.66,1.66,1.66Z"/><path class="cls-1" d="M96.86,84.64c.92,0,1.66-.75,1.66-1.66s-.75-1.66-1.66-1.66-1.66.75-1.66,1.66.75,1.66,1.66,1.66Z"/><circle class="cls-1" cx="121.07" cy="82.97" r="1.66"/><circle class="cls-1" cx="72.64" cy="82.97" r="1.66"/><path class="cls-1" d="M145.28,84.64c.92,0,1.66-.75,1.66-1.66s-.75-1.66-1.66-1.66-1.66.75-1.66,1.66.75,1.66,1.66,1.66Z"/><circle class="cls-1" cx="193.71" cy="82.97" r="1.66"/><circle class="cls-1" cx="217.92" cy="82.97" r="1.66"/><circle class="cls-1" cx="169.5" cy="82.97" r="1.66"/><circle class="cls-1" cx="48.43" cy="82.97" r="1.66"/><circle class="cls-1" cx="484.28" cy="82.97" r="1.66"/><circle class="cls-1" cx="508.49" cy="82.97" r="1.66"/><path class="cls-1" d="M435.85,84.64c.92,0,1.66-.75,1.66-1.66s-.75-1.66-1.66-1.66-1.66.75-1.66,1.66.75,1.66,1.66,1.66Z"/><circle class="cls-1" cx="460.06" cy="82.97" r="1.66"/><path class="cls-1" d="M581.13,84.64c.92,0,1.66-.75,1.66-1.66s-.75-1.66-1.66-1.66-1.66.75-1.66,1.66.75,1.66,1.66,1.66Z"/><path class="cls-1" d="M532.7,84.64c.92,0,1.66-.75,1.66-1.66s-.75-1.66-1.66-1.66-1.66.75-1.66,1.66.75,1.66,1.66,1.66Z"/><circle class="cls-1" cx="556.92" cy="82.97" r="1.66"/><path class="cls-1" d="M1.66,82.97c0-.92-.75-1.66-1.66-1.66v3.33c.92,0,1.66-.75,1.66-1.66Z"/><circle class="cls-1" cx="24.21" cy="82.97" r="1.66"/><path class="cls-1" d="M603.68,82.97c0,.92.75,1.66,1.66,1.66v-3.33c-.92,0-1.66.75-1.66,1.66Z"/><path class="cls-3" d="M317.52,91.37c-.86.28-1.79.44-2.75.44s-1.88-.16-2.75-.44c-.85,4.32-3.05,8.22-6.3,11.2h18.09c-3.25-2.98-5.45-6.88-6.3-11.2Z"/><path class="cls-3" d="M341.74,91.37c-.86.28-1.79.44-2.75.44s-1.88-.16-2.75-.44c-.85,4.32-3.05,8.22-6.3,11.2h18.09c-3.25-2.98-5.45-6.88-6.3-11.2Z"/><path class="cls-3" d="M269.1,91.37c-.86.28-1.79.44-2.75.44s-1.88-.16-2.75-.44c-.85,4.32-3.05,8.22-6.3,11.2h18.09c-3.25-2.98-5.45-6.88-6.3-11.2Z"/><path class="cls-3" d="M293.31,91.37c-.86.28-1.79.44-2.75.44s-1.88-.16-2.75-.44c-.85,4.32-3.05,8.22-6.3,11.2h18.09c-3.25-2.98-5.45-6.88-6.3-11.2Z"/><path class="cls-3" d="M438.59,91.37c-.86.28-1.79.44-2.75.44s-1.88-.16-2.75-.44c-.85,4.32-3.05,8.22-6.3,11.2h18.09c-3.25-2.98-5.45-6.88-6.3-11.2Z"/><path class="cls-3" d="M414.38,91.37c-.86.28-1.79.44-2.75.44s-1.88-.16-2.75-.44c-.85,4.32-3.05,8.22-6.3,11.2h18.09c-3.25-2.98-5.45-6.88-6.3-11.2Z"/><path class="cls-3" d="M365.95,91.37c-.86.28-1.79.44-2.75.44s-1.88-.16-2.75-.44c-.85,4.32-3.05,8.22-6.3,11.2h18.09c-3.25-2.98-5.45-6.88-6.3-11.2Z"/><path class="cls-3" d="M390.17,91.37c-.86.28-1.79.44-2.75.44s-1.88-.16-2.75-.44c-.85,4.32-3.05,8.22-6.3,11.2h18.09c-3.25-2.98-5.45-6.88-6.3-11.2Z"/><path class="cls-3" d="M148.03,91.37c-.86.28-1.79.44-2.75.44s-1.88-.16-2.75-.44c-.85,4.32-3.05,8.22-6.3,11.2h18.09c-3.25-2.98-5.45-6.88-6.3-11.2Z"/><path class="cls-3" d="M123.81,91.37c-.86.28-1.79.44-2.75.44s-1.88-.16-2.75-.44c-.85,4.32-3.05,8.22-6.3,11.2h18.09c-3.25-2.98-5.45-6.88-6.3-11.2Z"/><path class="cls-3" d="M75.39,91.37c-.86.28-1.79.44-2.75.44s-1.88-.16-2.75-.44c-.85,4.32-3.05,8.22-6.3,11.2h18.09c-3.25-2.98-5.45-6.88-6.3-11.2Z"/><path class="cls-3" d="M99.6,91.37c-.86.28-1.79.44-2.75.44s-1.88-.16-2.75-.44c-.85,4.32-3.05,8.22-6.3,11.2h18.09c-3.25-2.98-5.45-6.88-6.3-11.2Z"/><path class="cls-3" d="M220.67,91.37c-.86.28-1.79.44-2.75.44s-1.88-.16-2.75-.44c-.85,4.32-3.05,8.22-6.3,11.2h18.09c-3.25-2.98-5.45-6.88-6.3-11.2Z"/><path class="cls-3" d="M244.88,91.37c-.86.28-1.79.44-2.75.44s-1.88-.16-2.75-.44c-.85,4.32-3.05,8.22-6.3,11.2h18.09c-3.25-2.98-5.45-6.88-6.3-11.2Z"/><path class="cls-3" d="M172.24,91.37c-.86.28-1.79.44-2.75.44s-1.88-.16-2.75-.44c-.85,4.32-3.05,8.22-6.3,11.2h18.09c-3.25-2.98-5.45-6.88-6.3-11.2Z"/><path class="cls-3" d="M196.46,91.37c-.86.28-1.79.44-2.75.44s-1.88-.16-2.75-.44c-.85,4.32-3.05,8.22-6.3,11.2h18.09c-3.25-2.98-5.45-6.88-6.3-11.2Z"/><path class="cls-3" d="M511.24,91.37c-.86.28-1.79.44-2.75.44s-1.88-.16-2.75-.44c-.85,4.32-3.05,8.22-6.3,11.2h18.09c-3.25-2.98-5.45-6.88-6.3-11.2Z"/><path class="cls-3" d="M535.45,91.37c-.86.28-1.79.44-2.75.44s-1.88-.16-2.75-.44c-.85,4.32-3.05,8.22-6.3,11.2h18.09c-3.25-2.98-5.45-6.88-6.3-11.2Z"/><path class="cls-3" d="M487.02,91.37c-.86.28-1.79.44-2.75.44s-1.88-.16-2.75-.44c-.85,4.32-3.05,8.22-6.3,11.2h18.09c-3.25-2.98-5.45-6.88-6.3-11.2Z"/><path class="cls-3" d="M462.81,91.37c-.86.28-1.79.44-2.75.44s-1.88-.16-2.75-.44c-.85,4.32-3.05,8.22-6.3,11.2h18.09c-3.25-2.98-5.45-6.88-6.3-11.2Z"/><path class="cls-3" d="M583.88,91.37c-.86.28-1.79.44-2.75.44s-1.88-.16-2.75-.44c-.85,4.32-3.05,8.22-6.3,11.2h18.09c-3.25-2.98-5.45-6.88-6.3-11.2Z"/><path class="cls-3" d="M559.66,91.37c-.86.28-1.79.44-2.75.44s-1.88-.16-2.75-.44c-.85,4.32-3.05,8.22-6.3,11.2h18.09c-3.25-2.98-5.45-6.88-6.3-11.2Z"/><path class="cls-3" d="M2.75,91.37c-.86.28-1.79.44-2.75.44v10.76h9.05c-3.25-2.98-5.45-6.88-6.3-11.2Z"/><path class="cls-3" d="M51.17,91.37c-.86.28-1.79.44-2.75.44s-1.88-.16-2.75-.44c-.85,4.32-3.05,8.22-6.3,11.2h18.09c-3.25-2.98-5.45-6.88-6.3-11.2Z"/><path class="cls-3" d="M596.3,102.57h9.05v-10.76c-.96,0-1.88-.16-2.75-.44-.85,4.32-3.05,8.22-6.3,11.2Z"/><path class="cls-3" d="M26.96,91.37c-.86.28-1.79.44-2.75.44s-1.88-.16-2.75-.44c-.85,4.32-3.05,8.22-6.3,11.2h18.09c-3.25-2.98-5.45-6.88-6.3-11.2Z"/><path class="cls-1" d="M314.76,67.98c1.82-5.77,2.75-10.5,2.75-14.07,0-3.98-.93-8.89-2.75-14.6-1.83,5.71-2.75,10.62-2.75,14.6,0,4.21,1.39,9.7,2.76,14.07Z"/><path class="cls-1" d="M338.97,67.98c1.82-5.77,2.75-10.5,2.75-14.07,0-3.98-.93-8.89-2.75-14.6-1.83,5.71-2.75,10.62-2.75,14.6,0,4.21,1.39,9.7,2.76,14.07Z"/><path class="cls-1" d="M266.33,67.98c1.82-5.77,2.75-10.5,2.75-14.07,0-3.98-.93-8.89-2.75-14.6-1.83,5.71-2.75,10.62-2.75,14.6,0,4.21,1.39,9.7,2.76,14.07Z"/><path class="cls-1" d="M290.54,67.98c1.82-5.77,2.75-10.5,2.75-14.07,0-3.98-.93-8.89-2.75-14.6-1.83,5.71-2.75,10.62-2.75,14.6,0,4.21,1.39,9.7,2.76,14.07Z"/><path class="cls-1" d="M411.61,67.98c1.82-5.77,2.75-10.5,2.75-14.07,0-3.98-.93-8.89-2.75-14.6-1.83,5.71-2.75,10.62-2.75,14.6,0,4.21,1.39,9.7,2.76,14.07Z"/><path class="cls-1" d="M363.19,67.98s.01-.05.02-.07c1.81-5.74,2.72-10.44,2.72-14,0-3.96-.92-8.83-2.72-14.5-.01-.03-.02-.06-.03-.1-1.83,5.71-2.75,10.62-2.75,14.6,0,4.21,1.39,9.7,2.76,14.07Z"/><path class="cls-1" d="M387.4,67.98c1.82-5.77,2.75-10.5,2.75-14.07,0-3.98-.93-8.89-2.75-14.6-1.83,5.71-2.75,10.62-2.75,14.6,0,4.21,1.39,9.7,2.76,14.07Z"/><path class="cls-1" d="M193.69,67.98c1.82-5.77,2.75-10.5,2.75-14.07,0-3.98-.93-8.89-2.75-14.6-1.83,5.71-2.75,10.62-2.75,14.6,0,4.21,1.39,9.7,2.76,14.07Z"/><path class="cls-1" d="M121.05,67.98s.01-.05.02-.07c1.81-5.74,2.72-10.44,2.72-14,0-3.96-.92-8.83-2.72-14.5-.01-.03-.02-.06-.03-.1-1.83,5.71-2.75,10.62-2.75,14.6,0,4.21,1.39,9.7,2.76,14.07Z"/><path class="cls-1" d="M145.26,67.98c1.82-5.77,2.75-10.5,2.75-14.07,0-3.98-.93-8.89-2.75-14.6-1.83,5.71-2.75,10.62-2.75,14.6,0,4.21,1.39,9.7,2.76,14.07Z"/><path class="cls-1" d="M72.62,67.98c1.82-5.77,2.75-10.5,2.75-14.07,0-3.98-.93-8.89-2.75-14.6-1.83,5.71-2.75,10.62-2.75,14.6,0,4.21,1.39,9.7,2.76,14.07Z"/><path class="cls-1" d="M96.83,67.98c1.82-5.77,2.75-10.5,2.75-14.07,0-3.98-.93-8.89-2.75-14.6-1.83,5.71-2.75,10.62-2.75,14.6,0,4.21,1.39,9.7,2.76,14.07Z"/><path class="cls-1" d="M217.9,67.98c1.82-5.77,2.75-10.5,2.75-14.07,0-3.98-.93-8.89-2.75-14.6-1.83,5.71-2.75,10.62-2.75,14.6,0,4.21,1.39,9.7,2.76,14.07Z"/><path class="cls-1" d="M242.12,67.98s.01-.05.02-.07c1.81-5.74,2.72-10.44,2.72-14,0-3.96-.92-8.83-2.72-14.5-.01-.03-.02-.06-.03-.1-1.83,5.71-2.75,10.62-2.75,14.6,0,4.21,1.39,9.7,2.76,14.07Z"/><path class="cls-1" d="M169.47,67.98c1.82-5.77,2.75-10.5,2.75-14.07,0-3.98-.93-8.89-2.75-14.6-1.83,5.71-2.75,10.62-2.75,14.6,0,4.21,1.39,9.7,2.76,14.07Z"/><path class="cls-1" d="M435.83,67.98c1.82-5.77,2.75-10.5,2.75-14.07,0-3.98-.93-8.89-2.75-14.6-1.83,5.71-2.75,10.62-2.75,14.6,0,4.21,1.39,9.7,2.76,14.07Z"/><path class="cls-1" d="M508.47,67.98c1.82-5.77,2.75-10.5,2.75-14.07,0-3.98-.93-8.89-2.75-14.6-1.83,5.71-2.75,10.62-2.75,14.6,0,4.21,1.39,9.7,2.76,14.07Z"/><path class="cls-1" d="M484.25,67.98s.01-.05.02-.07c1.81-5.74,2.72-10.44,2.72-14,0-3.96-.92-8.83-2.72-14.5-.01-.03-.02-.06-.03-.1-1.83,5.71-2.75,10.62-2.75,14.6,0,4.21,1.39,9.7,2.76,14.07Z"/><path class="cls-1" d="M460.04,67.98c1.82-5.77,2.75-10.5,2.75-14.07,0-3.98-.93-8.89-2.75-14.6-1.83,5.71-2.75,10.62-2.75,14.6,0,4.21,1.39,9.7,2.76,14.07Z"/><path class="cls-1" d="M581.11,67.98c1.82-5.77,2.75-10.5,2.75-14.07,0-3.98-.93-8.89-2.75-14.6-1.83,5.71-2.75,10.62-2.75,14.6,0,4.21,1.39,9.7,2.76,14.07Z"/><path class="cls-1" d="M532.68,67.98c1.82-5.77,2.75-10.5,2.75-14.07,0-3.98-.93-8.89-2.75-14.6-1.83,5.71-2.75,10.62-2.75,14.6,0,4.21,1.39,9.7,2.76,14.07Z"/><path class="cls-1" d="M556.9,67.98c1.82-5.77,2.75-10.5,2.75-14.07,0-3.98-.93-8.89-2.75-14.6-1.83,5.71-2.75,10.62-2.75,14.6,0,4.21,1.39,9.7,2.76,14.07Z"/><path class="cls-1" d="M0,39.41v28.5c1.81-5.74,2.72-10.44,2.72-14,0-3.96-.92-8.83-2.72-14.5Z"/><path class="cls-1" d="M48.41,67.98c1.82-5.77,2.75-10.5,2.75-14.07,0-3.98-.93-8.89-2.75-14.6-1.83,5.71-2.75,10.62-2.75,14.6,0,4.21,1.39,9.7,2.76,14.07Z"/><path class="cls-1" d="M602.56,53.91c0,4.21,1.39,9.7,2.76,14.07,0-.02.01-.05.02-.07v-28.5s-.02-.06-.03-.1c-1.83,5.71-2.75,10.62-2.75,14.6Z"/><path class="cls-1" d="M24.19,67.98c1.82-5.77,2.75-10.5,2.75-14.07,0-3.98-.93-8.89-2.75-14.6-1.83,5.71-2.75,10.62-2.75,14.6,0,4.21,1.39,9.7,2.76,14.07Z"/><rect class="cls-2" x="287.93" y="28.57" width="5.22" height="2.9"/><rect class="cls-2" x="312.14" y="28.57" width="5.22" height="2.9"/><rect class="cls-2" x="263.72" y="28.57" width="5.22" height="2.9"/><rect class="cls-2" x="384.78" y="28.57" width="5.22" height="2.9"/><polygon class="cls-2" points="244.72 31.46 244.72 28.57 242.14 28.57 239.5 28.57 239.5 31.46 242.14 31.46 244.72 31.46"/><rect class="cls-2" x="409" y="28.57" width="5.22" height="2.9"/><rect class="cls-2" x="336.36" y="28.57" width="5.22" height="2.9"/><rect class="cls-2" x="360.57" y="28.57" width="5.22" height="2.9"/><polygon class="cls-2" points="123.65 31.46 123.65 28.57 121.07 28.57 118.43 28.57 118.43 31.46 121.07 31.46 123.65 31.46"/><rect class="cls-2" x="142.65" y="28.57" width="5.22" height="2.9"/><rect class="cls-2" x="94.22" y="28.57" width="5.22" height="2.9"/><rect class="cls-2" x="70.01" y="28.57" width="5.22" height="2.9"/><rect class="cls-2" x="215.29" y="28.57" width="5.22" height="2.9"/><rect class="cls-2" x="191.07" y="28.57" width="5.22" height="2.9"/><rect class="cls-2" x="166.86" y="28.57" width="5.22" height="2.9"/><polygon class="cls-2" points="486.86 31.46 486.86 28.57 484.28 28.57 481.64 28.57 481.64 31.46 484.28 31.46 486.86 31.46"/><rect class="cls-2" x="505.85" y="28.57" width="5.22" height="2.9"/><rect class="cls-2" x="433.21" y="28.57" width="5.22" height="2.9"/><rect class="cls-2" x="457.43" y="28.57" width="5.22" height="2.9"/><rect class="cls-2" x="578.49" y="28.57" width="5.22" height="2.9"/><rect class="cls-2" x="530.07" y="28.57" width="5.22" height="2.9"/><rect class="cls-2" x="554.28" y="28.57" width="5.22" height="2.9"/><rect class="cls-2" y="28.57" width="2.59" height="2.9"/><rect class="cls-2" x="21.58" y="28.57" width="5.22" height="2.9"/><rect class="cls-2" x="45.79" y="28.57" width="5.22" height="2.9"/><rect class="cls-2" x="602.71" y="28.57" width="2.64" height="2.9"/><path class="cls-3" d="M307.15,53.91c0,6.35,2.53,14.65,4.74,20.71.9-.31,1.87-.49,2.88-.49s1.94.17,2.83.47c2.21-6.05,4.74-14.34,4.74-20.69,0-7.09-2.57-15.39-4.79-21.24h-5.6c-2.23,5.87-4.8,14.18-4.8,21.24ZM314.75,35.52l.57,1.67c2.25,6.58,3.39,12.21,3.39,16.72,0,4.06-1.14,9.52-3.39,16.23l-.58,1.72-.57-1.72c-1.55-4.66-3.4-11.27-3.4-16.22,0-4.51,1.14-10.14,3.39-16.72l.57-1.67Z"/><path class="cls-3" d="M258.72,53.91c0,6.35,2.53,14.65,4.74,20.71.9-.31,1.87-.49,2.88-.49s1.94.17,2.83.47c2.21-6.05,4.74-14.34,4.74-20.69,0-7.09-2.57-15.39-4.79-21.24h-5.6c-2.23,5.87-4.8,14.18-4.8,21.24ZM266.32,35.52l.57,1.67c2.25,6.58,3.39,12.21,3.39,16.72,0,4.06-1.14,9.52-3.39,16.23l-.58,1.72-.57-1.72c-1.55-4.66-3.4-11.27-3.4-16.22,0-4.51,1.14-10.14,3.39-16.72l.57-1.67Z"/><path class="cls-3" d="M331.37,53.91c0,6.35,2.53,14.65,4.74,20.71.9-.31,1.87-.49,2.88-.49s1.94.17,2.83.47c2.21-6.05,4.74-14.34,4.74-20.69,0-7.09-2.57-15.39-4.79-21.24h-5.6c-2.23,5.87-4.8,14.18-4.8,21.24ZM338.96,35.52l.57,1.67c2.25,6.58,3.39,12.21,3.39,16.72,0,4.06-1.14,9.52-3.39,16.23l-.58,1.72-.57-1.72c-1.55-4.66-3.4-11.27-3.4-16.22,0-4.51,1.14-10.14,3.39-16.72l.57-1.67Z"/><path class="cls-3" d="M282.94,53.91c0,6.35,2.53,14.65,4.74,20.71.9-.31,1.87-.49,2.88-.49s1.94.17,2.83.47c2.21-6.05,4.74-14.34,4.74-20.69,0-7.09-2.57-15.39-4.79-21.24h-5.6c-2.23,5.87-4.8,14.18-4.8,21.24ZM290.54,35.52l.57,1.67c2.25,6.58,3.39,12.21,3.39,16.72,0,4.06-1.14,9.52-3.39,16.23l-.58,1.72-.57-1.72c-1.55-4.66-3.4-11.27-3.4-16.22,0-4.51,1.14-10.14,3.39-16.72l.57-1.67Z"/><path class="cls-3" d="M379.79,53.91c0,6.35,2.53,14.65,4.74,20.71.9-.31,1.87-.49,2.88-.49s1.94.17,2.83.47c2.21-6.05,4.74-14.34,4.74-20.69,0-7.09-2.57-15.39-4.79-21.24h-5.6c-2.23,5.87-4.8,14.18-4.8,21.24ZM387.39,35.52l.57,1.67c2.25,6.58,3.39,12.21,3.39,16.72,0,4.06-1.14,9.52-3.39,16.23l-.58,1.72-.57-1.72c-1.55-4.66-3.4-11.27-3.4-16.22,0-4.51,1.14-10.14,3.39-16.72l.57-1.67Z"/><path class="cls-3" d="M404.01,53.91c0,6.35,2.53,14.65,4.74,20.71.9-.31,1.87-.49,2.88-.49s1.94.17,2.83.47c2.21-6.05,4.74-14.34,4.74-20.69,0-7.09-2.57-15.39-4.79-21.24h-5.59c-2.23,5.87-4.8,14.18-4.8,21.24ZM411.6,35.52l.57,1.67c2.25,6.58,3.39,12.21,3.39,16.72,0,4.06-1.14,9.52-3.39,16.23l-.58,1.72-.57-1.72c-1.55-4.66-3.4-11.27-3.4-16.22,0-4.51,1.14-10.14,3.39-16.72l.57-1.67Z"/><path class="cls-3" d="M355.58,53.91c0,6.35,2.53,14.65,4.74,20.71.9-.31,1.87-.49,2.88-.49s1.94.17,2.83.47c2.21-6.05,4.74-14.34,4.74-20.69,0-7.09-2.57-15.39-4.79-21.24h-5.6c-2.23,5.87-4.8,14.18-4.8,21.24ZM363.18,35.52l.03.09.54,1.59c2.25,6.58,3.39,12.21,3.39,16.72,0,4.06-1.14,9.52-3.39,16.23l-.55,1.64-.03.08-.57-1.72c-1.55-4.66-3.4-11.27-3.4-16.22,0-4.51,1.14-10.14,3.39-16.72l.57-1.67Z"/><path class="cls-3" d="M234.51,53.91c0,6.35,2.53,14.65,4.74,20.71.9-.31,1.87-.49,2.88-.49s1.94.17,2.83.47c2.21-6.05,4.74-14.34,4.74-20.69,0-7.09-2.57-15.39-4.79-21.24h-5.6c-2.23,5.87-4.8,14.18-4.8,21.24ZM242.11,35.52l.03.09.54,1.59c2.25,6.58,3.39,12.21,3.39,16.72,0,4.06-1.14,9.52-3.39,16.23l-.55,1.64-.03.08-.57-1.72c-1.55-4.66-3.4-11.27-3.4-16.22,0-4.51,1.14-10.14,3.39-16.72l.57-1.67Z"/><path class="cls-3" d="M137.66,53.91c0,6.35,2.53,14.65,4.74,20.71.9-.31,1.87-.49,2.88-.49s1.94.17,2.83.47c2.21-6.05,4.74-14.34,4.74-20.69,0-7.09-2.57-15.39-4.79-21.24h-5.6c-2.23,5.87-4.8,14.18-4.8,21.24ZM145.25,35.52l.57,1.67c2.25,6.58,3.39,12.21,3.39,16.72,0,4.06-1.14,9.52-3.39,16.23l-.58,1.72-.57-1.72c-1.55-4.66-3.4-11.27-3.4-16.22,0-4.51,1.14-10.14,3.39-16.72l.57-1.67Z"/><path class="cls-3" d="M65.01,53.91c0,6.35,2.53,14.65,4.74,20.71.9-.31,1.87-.49,2.88-.49s1.94.17,2.83.47c2.21-6.05,4.74-14.34,4.74-20.69,0-7.09-2.57-15.39-4.79-21.24h-5.6c-2.23,5.87-4.8,14.18-4.8,21.24ZM72.61,35.52l.57,1.67c2.25,6.58,3.39,12.21,3.39,16.72,0,4.06-1.14,9.52-3.39,16.23l-.58,1.72-.57-1.72c-1.55-4.66-3.4-11.27-3.4-16.22,0-4.51,1.14-10.14,3.39-16.72l.57-1.67Z"/><path class="cls-3" d="M89.23,53.91c0,6.35,2.53,14.65,4.74,20.71.9-.31,1.87-.49,2.88-.49s1.94.17,2.83.47c2.21-6.05,4.74-14.34,4.74-20.69,0-7.09-2.57-15.39-4.79-21.24h-5.6c-2.23,5.87-4.8,14.18-4.8,21.24ZM96.83,35.52l.57,1.67c2.25,6.58,3.39,12.21,3.39,16.72,0,4.06-1.14,9.52-3.39,16.23l-.58,1.72-.57-1.72c-1.55-4.66-3.4-11.27-3.4-16.22,0-4.51,1.14-10.14,3.39-16.72l.57-1.67Z"/><path class="cls-3" d="M113.44,53.91c0,6.35,2.53,14.65,4.74,20.71.9-.31,1.87-.49,2.88-.49s1.94.17,2.83.47c2.21-6.05,4.74-14.34,4.74-20.69,0-7.09-2.57-15.39-4.79-21.24h-5.6c-2.23,5.87-4.8,14.18-4.8,21.24ZM121.04,35.52l.03.09.54,1.59c2.25,6.58,3.39,12.21,3.39,16.72,0,4.06-1.14,9.52-3.39,16.23l-.55,1.64-.03.08-.57-1.72c-1.55-4.66-3.4-11.27-3.4-16.22,0-4.51,1.14-10.14,3.39-16.72l.57-1.67Z"/><path class="cls-3" d="M210.3,53.91c0,6.35,2.53,14.65,4.74,20.71.9-.31,1.87-.49,2.88-.49s1.94.17,2.83.47c2.21-6.05,4.74-14.34,4.74-20.69,0-7.09-2.57-15.39-4.79-21.24h-5.6c-2.23,5.87-4.8,14.18-4.8,21.24ZM217.89,35.52l.57,1.67c2.25,6.58,3.39,12.21,3.39,16.72,0,4.06-1.14,9.52-3.39,16.23l-.58,1.72-.57-1.72c-1.55-4.66-3.4-11.27-3.4-16.22,0-4.51,1.14-10.14,3.39-16.72l.57-1.67Z"/><path class="cls-3" d="M186.08,53.91c0,6.35,2.53,14.65,4.74,20.71.9-.31,1.87-.49,2.88-.49s1.94.17,2.83.47c2.21-6.05,4.74-14.34,4.74-20.69,0-7.09-2.57-15.39-4.79-21.24h-5.6c-2.23,5.87-4.8,14.18-4.8,21.24ZM193.68,35.52l.57,1.67c2.25,6.58,3.39,12.21,3.39,16.72,0,4.06-1.14,9.52-3.39,16.23l-.58,1.72-.57-1.72c-1.55-4.66-3.4-11.27-3.4-16.22,0-4.51,1.14-10.14,3.39-16.72l.57-1.67Z"/><path class="cls-3" d="M161.87,53.91c0,6.35,2.53,14.65,4.74,20.71.9-.31,1.87-.49,2.88-.49s1.94.17,2.83.47c2.21-6.05,4.74-14.34,4.74-20.69,0-7.09-2.57-15.39-4.79-21.24h-5.6c-2.23,5.87-4.8,14.18-4.8,21.24ZM169.47,35.52l.57,1.67c2.25,6.58,3.39,12.21,3.39,16.72,0,4.06-1.14,9.52-3.39,16.23l-.58,1.72-.57-1.72c-1.55-4.66-3.4-11.27-3.4-16.22,0-4.51,1.14-10.14,3.39-16.72l.57-1.67Z"/><path class="cls-3" d="M428.22,53.91c0,6.35,2.53,14.65,4.74,20.71.9-.31,1.87-.49,2.88-.49s1.94.17,2.83.47c2.21-6.05,4.74-14.34,4.74-20.69,0-7.09-2.57-15.39-4.79-21.24h-5.59c-2.23,5.87-4.8,14.18-4.8,21.24ZM435.82,35.52l.57,1.67c2.25,6.58,3.39,12.21,3.39,16.72,0,4.06-1.14,9.52-3.39,16.23l-.58,1.72-.57-1.72c-1.55-4.66-3.4-11.27-3.4-16.22,0-4.51,1.14-10.14,3.39-16.72l.57-1.67Z"/><path class="cls-3" d="M476.65,53.91c0,6.35,2.53,14.65,4.74,20.71.9-.31,1.87-.49,2.88-.49s1.94.17,2.83.47c2.21-6.05,4.74-14.34,4.74-20.69,0-7.09-2.57-15.39-4.79-21.24h-5.6c-2.23,5.87-4.8,14.18-4.8,21.24ZM484.25,35.52l.03.09.54,1.59c2.25,6.58,3.39,12.21,3.39,16.72,0,4.06-1.14,9.52-3.39,16.23l-.55,1.64-.03.08-.57-1.72c-1.55-4.66-3.4-11.27-3.4-16.22,0-4.51,1.14-10.14,3.39-16.72l.57-1.67Z"/><path class="cls-3" d="M500.86,53.91c0,6.35,2.53,14.65,4.74,20.71.9-.31,1.87-.49,2.88-.49s1.94.17,2.83.47c2.21-6.05,4.74-14.34,4.74-20.69,0-7.09-2.57-15.39-4.79-21.24h-5.6c-2.23,5.87-4.8,14.18-4.8,21.24ZM508.46,35.52l.57,1.67c2.25,6.58,3.39,12.21,3.39,16.72,0,4.06-1.14,9.52-3.39,16.23l-.58,1.72-.57-1.72c-1.55-4.66-3.4-11.27-3.4-16.22,0-4.51,1.14-10.14,3.39-16.72l.57-1.67Z"/><path class="cls-3" d="M452.43,53.91c0,6.35,2.53,14.65,4.74,20.71.9-.31,1.87-.49,2.88-.49s1.94.17,2.83.47c2.21-6.05,4.74-14.34,4.74-20.69,0-7.09-2.57-15.39-4.79-21.24h-5.6c-2.23,5.87-4.8,14.18-4.8,21.24ZM460.03,35.52l.57,1.67c2.25,6.58,3.39,12.21,3.39,16.72,0,4.06-1.14,9.52-3.39,16.23l-.58,1.72-.57-1.72c-1.55-4.66-3.4-11.27-3.4-16.22,0-4.51,1.14-10.14,3.39-16.72l.57-1.67Z"/><path class="cls-3" d="M573.5,53.91c0,6.35,2.53,14.65,4.74,20.71.9-.31,1.87-.49,2.88-.49s1.94.17,2.83.47c2.21-6.05,4.74-14.34,4.74-20.69,0-7.09-2.57-15.39-4.79-21.24h-5.6c-2.23,5.87-4.8,14.18-4.8,21.24ZM581.1,35.52l.57,1.67c2.25,6.58,3.39,12.21,3.39,16.72,0,4.06-1.14,9.52-3.39,16.23l-.58,1.72-.57-1.72c-1.55-4.66-3.4-11.27-3.4-16.22,0-4.51,1.14-10.14,3.39-16.72l.57-1.67Z"/><path class="cls-3" d="M525.08,53.91c0,6.35,2.53,14.65,4.74,20.71.9-.31,1.87-.49,2.88-.49s1.94.17,2.83.47c2.21-6.05,4.74-14.34,4.74-20.69,0-7.09-2.57-15.39-4.79-21.24h-5.6c-2.23,5.87-4.8,14.18-4.8,21.24ZM532.67,35.52l.57,1.67c2.25,6.58,3.39,12.21,3.39,16.72,0,4.06-1.14,9.52-3.39,16.23l-.58,1.72-.57-1.72c-1.55-4.66-3.4-11.27-3.4-16.22,0-4.51,1.14-10.14,3.39-16.72l.57-1.67Z"/><path class="cls-3" d="M549.29,53.91c0,6.35,2.53,14.65,4.74,20.71.9-.31,1.87-.49,2.88-.49s1.94.17,2.83.47c2.21-6.05,4.74-14.34,4.74-20.69,0-7.09-2.57-15.39-4.79-21.24h-5.6c-2.23,5.87-4.8,14.18-4.8,21.24ZM556.89,35.52l.57,1.67c2.25,6.58,3.39,12.21,3.39,16.72,0,4.06-1.14,9.52-3.39,16.23l-.58,1.72-.57-1.72c-1.55-4.66-3.4-11.27-3.4-16.22,0-4.51,1.14-10.14,3.39-16.72l.57-1.67Z"/><path class="cls-3" d="M7.57,53.91c0-7.09-2.57-15.39-4.79-21.24H0v2.93l.54,1.59c2.25,6.58,3.39,12.21,3.39,16.72,0,4.06-1.14,9.52-3.39,16.23l-.55,1.64v2.35c.99,0,1.94.17,2.83.47,2.21-6.05,4.74-14.34,4.74-20.69Z"/><path class="cls-3" d="M40.8,53.91c0,6.35,2.53,14.65,4.74,20.71.9-.31,1.87-.49,2.88-.49s1.94.17,2.83.47c2.21-6.05,4.74-14.34,4.74-20.69,0-7.09-2.57-15.39-4.79-21.24h-5.6c-2.23,5.87-4.8,14.18-4.8,21.24ZM48.4,35.52l.57,1.67c2.25,6.58,3.39,12.21,3.39,16.72,0,4.06-1.14,9.52-3.39,16.23l-.58,1.72-.57-1.72c-1.55-4.66-3.4-11.27-3.4-16.22,0-4.51,1.14-10.14,3.39-16.72l.57-1.67Z"/><path class="cls-3" d="M16.59,53.91c0,6.35,2.53,14.65,4.74,20.71.9-.31,1.87-.49,2.88-.49s1.94.17,2.83.47c2.21-6.05,4.74-14.34,4.74-20.69,0-7.09-2.57-15.39-4.79-21.24h-5.6c-2.23,5.87-4.8,14.18-4.8,21.24ZM24.18,35.52l.57,1.67c2.25,6.58,3.39,12.21,3.39,16.72,0,4.06-1.14,9.52-3.39,16.23l-.58,1.72-.57-1.72c-1.55-4.66-3.4-11.27-3.4-16.22,0-4.51,1.14-10.14,3.39-16.72l.57-1.67Z"/><path class="cls-3" d="M597.72,53.91c0,6.35,2.53,14.65,4.74,20.71.9-.31,1.87-.49,2.88-.49v-2.35l-.03.08-.57-1.72c-1.55-4.66-3.4-11.27-3.4-16.22,0-4.51,1.14-10.14,3.39-16.72l.57-1.67.03.09v-2.93h-2.82c-2.23,5.87-4.8,14.18-4.8,21.24Z"/><path class="cls-1" d="M341.68,27.36c.61-3.24,1.99-6.23,4.14-8.89h-13.64c2.11,2.63,3.48,5.62,4.09,8.89h5.42Z"/><path class="cls-1" d="M365.89,27.36c.61-3.24,1.99-6.23,4.14-8.89h-13.64c2.11,2.63,3.48,5.62,4.09,8.89h5.42Z"/><path class="cls-1" d="M317.46,27.36c.61-3.24,1.99-6.23,4.14-8.89h-13.64c2.11,2.63,3.48,5.62,4.09,8.89h5.42Z"/><path class="cls-1" d="M269.03,27.36c.61-3.24,1.99-6.23,4.14-8.89h-13.64c2.11,2.63,3.48,5.62,4.09,8.89h5.42Z"/><path class="cls-1" d="M293.25,27.36c.61-3.24,1.99-6.23,4.14-8.89h-13.64c2.11,2.63,3.48,5.62,4.09,8.89h5.42Z"/><path class="cls-1" d="M390.1,27.36c.61-3.24,1.99-6.23,4.14-8.89h-13.64c2.11,2.63,3.48,5.62,4.09,8.89h5.42Z"/><path class="cls-1" d="M242.14,27.36h2.68c.61-3.24,1.99-6.23,4.14-8.89h-13.64c2.11,2.63,3.48,5.62,4.09,8.89h2.73Z"/><path class="cls-1" d="M511.17,27.36c.61-3.24,1.99-6.23,4.14-8.89h-13.64c2.11,2.63,3.48,5.62,4.09,8.89h5.42Z"/><path class="cls-1" d="M484.28,27.36h2.68c.61-3.24,1.99-6.23,4.14-8.89h-13.64c2.11,2.63,3.48,5.62,4.09,8.89h2.73Z"/><path class="cls-1" d="M414.32,27.36c.61-3.24,1.99-6.23,4.14-8.89h-13.64c2.11,2.63,3.48,5.62,4.09,8.89h5.42Z"/><path class="cls-1" d="M438.53,27.36c.61-3.24,1.99-6.23,4.14-8.89h-13.64c2.11,2.63,3.48,5.62,4.09,8.89h5.42Z"/><path class="cls-1" d="M462.75,27.36c.61-3.24,1.99-6.23,4.14-8.89h-13.64c2.11,2.63,3.48,5.62,4.09,8.89h5.42Z"/><path class="cls-1" d="M99.54,27.36c.61-3.24,1.99-6.23,4.14-8.89h-13.64c2.11,2.63,3.48,5.62,4.09,8.89h5.42Z"/><path class="cls-1" d="M51.11,27.36c.61-3.24,1.99-6.23,4.14-8.89h-13.64c2.11,2.63,3.48,5.62,4.09,8.89h5.42Z"/><path class="cls-1" d="M75.32,27.36c.61-3.24,1.99-6.23,4.14-8.89h-13.64c2.11,2.63,3.48,5.62,4.09,8.89h5.42Z"/><path class="cls-1" d="M26.9,27.36c.61-3.24,1.99-6.23,4.14-8.89h-13.64c2.11,2.63,3.48,5.62,4.09,8.89h5.42Z"/><path class="cls-1" d="M196.39,27.36c.61-3.24,1.99-6.23,4.14-8.89h-13.64c2.11,2.63,3.48,5.62,4.09,8.89h5.42Z"/><path class="cls-1" d="M220.61,27.36c.61-3.24,1.99-6.23,4.14-8.89h-13.64c2.11,2.63,3.48,5.62,4.09,8.89h5.42Z"/><path class="cls-1" d="M172.18,27.36c.61-3.24,1.99-6.23,4.14-8.89h-13.64c2.11,2.63,3.48,5.62,4.09,8.89h5.42Z"/><path class="cls-1" d="M121.07,27.36h2.68c.61-3.24,1.99-6.23,4.14-8.89h-13.64c2.11,2.63,3.48,5.62,4.09,8.89h2.73Z"/><path class="cls-1" d="M147.97,27.36c.61-3.24,1.99-6.23,4.14-8.89h-13.64c2.11,2.63,3.48,5.62,4.09,8.89h5.42Z"/><path class="cls-1" d="M535.39,27.36c.61-3.24,1.99-6.23,4.14-8.89h-13.64c2.11,2.63,3.48,5.62,4.09,8.89h5.42Z"/><path class="cls-1" d="M559.6,27.36c.61-3.24,1.99-6.23,4.14-8.89h-13.64c2.11,2.63,3.48,5.62,4.09,8.89h5.42Z"/><path class="cls-1" d="M583.81,27.36c.61-3.24,1.99-6.23,4.14-8.89h-13.64c2.11,2.63,3.48,5.62,4.09,8.89h5.42Z"/><path class="cls-1" d="M6.82,18.46H0v8.89h2.68c.61-3.24,1.99-6.23,4.14-8.89Z"/><path class="cls-1" d="M602.61,27.36h2.73v-8.89h-6.82c2.11,2.63,3.48,5.62,4.09,8.89Z"/><rect class="cls-1" x="522.97" y="109.83" width="3.33" height="15.74"/><rect class="cls-1" x="543.15" y="109.83" width="3.33" height="15.74"/><rect class="cls-1" x="563.32" y="109.83" width="3.33" height="15.74"/><rect class="cls-1" x="502.79" y="109.83" width="3.33" height="15.74"/><rect class="cls-1" x="462.43" y="109.83" width="3.33" height="15.74"/><rect class="cls-1" x="482.61" y="109.83" width="3.33" height="15.74"/><rect class="cls-1" x="603.68" y="109.83" width="1.66" height="15.74"/><rect class="cls-1" x="583.5" y="109.83" width="3.33" height="15.74"/><rect class="cls-1" y="109.83" width="1.66" height="15.74"/><rect class="cls-1" x="381.72" y="109.83" width="3.33" height="15.74"/><rect class="cls-1" x="301.01" y="109.83" width="3.33" height="15.74"/><rect class="cls-1" x="280.83" y="109.83" width="3.33" height="15.74"/><rect class="cls-1" x="321.19" y="109.83" width="3.33" height="15.74"/><rect class="cls-1" x="240.47" y="109.83" width="3.33" height="15.74"/><rect class="cls-1" x="260.65" y="109.83" width="3.33" height="15.74"/><rect class="cls-1" x="401.9" y="109.83" width="3.33" height="15.74"/><rect class="cls-1" x="422.08" y="109.83" width="3.33" height="15.74"/><rect class="cls-1" x="442.26" y="109.83" width="3.33" height="15.74"/><rect class="cls-1" x="361.54" y="109.83" width="3.33" height="15.74"/><rect class="cls-1" x="341.36" y="109.83" width="3.33" height="15.74"/><rect class="cls-1" x="220.3" y="109.83" width="3.33" height="15.74"/><rect class="cls-1" x="18.51" y="109.83" width="3.33" height="15.74"/><rect class="cls-1" x="38.69" y="109.83" width="3.33" height="15.74"/><rect class="cls-1" x="99.23" y="109.83" width="3.33" height="15.74"/><rect class="cls-1" x="79.05" y="109.83" width="3.33" height="15.74"/><rect class="cls-1" x="58.87" y="109.83" width="3.33" height="15.74"/><rect class="cls-1" x="119.4" y="109.83" width="3.33" height="15.74"/><rect class="cls-1" x="200.12" y="109.83" width="3.33" height="15.74"/><rect class="cls-1" x="139.58" y="109.83" width="3.33" height="15.74"/><rect class="cls-1" x="179.94" y="109.83" width="3.33" height="15.74"/><rect class="cls-1" x="159.76" y="109.83" width="3.33" height="15.74"/><rect class="cls-2" x="123.94" y="109.83" width="14.43" height="15.74"/><rect class="cls-2" x="507.33" y="109.83" width="14.43" height="15.74"/><rect class="cls-2" x="527.51" y="109.83" width="14.43" height="15.74"/><rect class="cls-2" x="547.69" y="109.83" width="14.43" height="15.74"/><rect class="cls-2" x="466.97" y="109.83" width="14.43" height="15.74"/><rect class="cls-2" x="487.15" y="109.83" width="14.43" height="15.74"/><rect class="cls-2" x="446.8" y="109.83" width="14.43" height="15.74"/><rect class="cls-2" x="588.04" y="109.83" width="14.43" height="15.74"/><rect class="cls-2" x="567.86" y="109.83" width="14.43" height="15.74"/><rect class="cls-2" x="285.37" y="109.83" width="14.43" height="15.74"/><rect class="cls-2" x="305.55" y="109.83" width="14.43" height="15.74"/><rect class="cls-2" x="224.84" y="109.83" width="14.43" height="15.74"/><rect class="cls-2" x="325.73" y="109.83" width="14.43" height="15.74"/><rect class="cls-2" x="265.19" y="109.83" width="14.43" height="15.74"/><rect class="cls-2" x="245.01" y="109.83" width="14.43" height="15.74"/><rect class="cls-2" x="426.62" y="109.83" width="14.43" height="15.74"/><rect class="cls-2" x="406.44" y="109.83" width="14.43" height="15.74"/><rect class="cls-2" x="386.26" y="109.83" width="14.43" height="15.74"/><rect class="cls-2" x="366.08" y="109.83" width="14.43" height="15.74"/><rect class="cls-2" x="345.9" y="109.83" width="14.43" height="15.74"/><rect class="cls-2" x="2.88" y="109.83" width="14.43" height="15.74"/><rect class="cls-2" x="23.05" y="109.83" width="14.43" height="15.74"/><rect class="cls-2" x="43.23" y="109.83" width="14.43" height="15.74"/><rect class="cls-2" x="103.77" y="109.83" width="14.43" height="15.74"/><rect class="cls-2" x="83.59" y="109.83" width="14.43" height="15.74"/><rect class="cls-2" x="63.41" y="109.83" width="14.43" height="15.74"/><rect class="cls-2" x="144.12" y="109.83" width="14.43" height="15.74"/><rect class="cls-2" x="184.48" y="109.83" width="14.43" height="15.74"/><rect class="cls-2" x="164.3" y="109.83" width="14.43" height="15.74"/><rect class="cls-2" x="204.66" y="109.83" width="14.43" height="15.74"/><rect class="cls-5" x="581.34" y="142.46" width="102.39" height="1.21"/><rect class="cls-5" x="581.34" y="11.2" width="102.39" height="1.21"/><rect class="cls-5" x="581.34" width="102.39" height="1.21"/><rect class="cls-5" x="581.34" y="131.63" width="102.39" height="1.21"/><path class="cls-5" d="M584.22,82.97c0-1.59-1.29-2.88-2.88-2.88v1.21c.92,0,1.66.75,1.66,1.66s-.75,1.66-1.66,1.66v1.21c1.59,0,2.88-1.29,2.88-2.88Z"/><path class="cls-5" d="M585.28,53.91c0-4.51-1.14-10.14-3.39-16.72l-.54-1.59v3.8c1.81,5.67,2.72,10.54,2.72,14.5,0,3.56-.92,8.26-2.72,14v3.87l.55-1.64c2.25-6.71,3.39-12.17,3.39-16.23Z"/><path class="cls-5" d="M605.56,85.85c1.59,0,2.88-1.29,2.88-2.88s-1.29-2.88-2.88-2.88-2.88,1.29-2.88,2.88,1.29,2.88,2.88,2.88ZM605.56,81.31c.92,0,1.66.75,1.66,1.66s-.75,1.66-1.66,1.66-1.66-.75-1.66-1.66.75-1.66,1.66-1.66Z"/><path class="cls-5" d="M604.96,70.14l.57,1.72.58-1.72c2.25-6.71,3.39-12.17,3.39-16.23,0-4.51-1.14-10.14-3.39-16.72l-.57-1.67-.57,1.67c-2.25,6.58-3.39,12.21-3.39,16.72,0,4.96,1.85,11.56,3.4,16.22ZM605.53,39.31c1.83,5.71,2.75,10.62,2.75,14.6,0,3.57-.92,8.3-2.75,14.07-1.37-4.38-2.76-9.86-2.76-14.07,0-3.98.93-8.89,2.75-14.6Z"/><path class="cls-5" d="M629.77,85.85c1.59,0,2.88-1.29,2.88-2.88s-1.29-2.88-2.88-2.88-2.88,1.29-2.88,2.88,1.29,2.88,2.88,2.88ZM629.77,81.31c.92,0,1.66.75,1.66,1.66s-.75,1.66-1.66,1.66-1.66-.75-1.66-1.66.75-1.66,1.66-1.66Z"/><path class="cls-5" d="M629.17,70.14l.57,1.72.58-1.72c2.25-6.71,3.39-12.17,3.39-16.23,0-4.51-1.14-10.14-3.39-16.72l-.57-1.67-.57,1.67c-2.25,6.58-3.39,12.21-3.39,16.72,0,4.96,1.85,11.56,3.4,16.22ZM629.74,39.31c1.83,5.71,2.75,10.62,2.75,14.6,0,3.57-.92,8.3-2.75,14.07-1.37-4.38-2.76-9.86-2.76-14.07,0-3.98.93-8.89,2.75-14.6Z"/><path class="cls-5" d="M653.99,85.85c1.59,0,2.88-1.29,2.88-2.88s-1.29-2.88-2.88-2.88-2.88,1.29-2.88,2.88,1.29,2.88,2.88,2.88ZM653.99,81.31c.92,0,1.66.75,1.66,1.66s-.75,1.66-1.66,1.66-1.66-.75-1.66-1.66.75-1.66,1.66-1.66Z"/><path class="cls-5" d="M653.39,70.14l.57,1.72.58-1.72c2.25-6.71,3.39-12.17,3.39-16.23,0-4.51-1.14-10.14-3.39-16.72l-.57-1.67-.57,1.67c-2.25,6.58-3.39,12.21-3.39,16.72,0,4.96,1.85,11.56,3.4,16.22ZM653.96,39.31c1.83,5.71,2.75,10.62,2.75,14.6,0,3.57-.92,8.3-2.75,14.07-1.37-4.38-2.76-9.86-2.76-14.07,0-3.98.93-8.89,2.75-14.6Z"/><path class="cls-5" d="M678.2,85.85c1.59,0,2.88-1.29,2.88-2.88s-1.29-2.88-2.88-2.88-2.88,1.29-2.88,2.88,1.29,2.88,2.88,2.88ZM678.2,81.31c.92,0,1.66.75,1.66,1.66s-.75,1.66-1.66,1.66-1.66-.75-1.66-1.66.75-1.66,1.66-1.66Z"/><path class="cls-5" d="M677.6,70.14l.57,1.72.58-1.72c2.25-6.71,3.39-12.17,3.39-16.23,0-4.51-1.14-10.14-3.39-16.72l-.57-1.67-.57,1.67c-2.25,6.58-3.39,12.21-3.39,16.72,0,4.96,1.85,11.56,3.4,16.22ZM678.17,39.31c1.83,5.71,2.75,10.62,2.75,14.6,0,3.57-.92,8.3-2.75,14.07-1.37-4.38-2.76-9.86-2.76-14.07,0-3.98.93-8.89,2.75-14.6Z"/><path class="cls-5" d="M683.73,109.83v-1.21h-102.39v1.21h1.67v15.74h-1.67v1.21h102.39v-1.21h-3.16v-15.74h3.16ZM598.65,125.57h-14.43v-15.74h14.43v15.74ZM603.19,125.57h-3.33v-15.74h3.33v15.74ZM618.83,125.57h-14.43v-15.74h14.43v15.74ZM623.37,125.57h-3.33v-15.74h3.33v15.74ZM639,125.57h-14.42v-15.74h14.42v15.74ZM643.54,125.57h-3.33v-15.74h3.33v15.74ZM659.18,125.57h-14.43v-15.74h14.43v15.74ZM663.72,125.57h-3.33v-15.74h3.33v15.74ZM679.36,125.57h-14.43v-15.74h14.43v15.74Z"/><path class="cls-5" d="M683.73,17.25h-102.39v1.21h6.82c-2.14,2.67-3.53,5.65-4.13,8.9h-2.69v1.21h2.59v2.89h-2.59v1.22h2.78c2.22,5.85,4.79,14.15,4.79,21.23,0,6.35-2.53,14.65-4.74,20.69-.88-.3-1.84-.47-2.83-.47v1.21c4.21,0,7.63,3.43,7.63,7.63s-3.42,7.63-7.63,7.63v1.21c.96,0,1.89-.16,2.75-.44.85,4.32,3.05,8.22,6.3,11.2h-9.05v1.21h102.39v-1.21h-14.58c3.25-2.98,5.45-6.88,6.3-11.2.87.28,1.79.44,2.75.44s1.88-.16,2.75-.44c.49,2.51,1.44,4.87,2.78,6.99v-2.5c-.77-1.56-1.32-3.23-1.64-4.96.59-.29,1.14-.64,1.64-1.05v-1.64s0,.01-.01.01c-.16.19-.34.36-.53.51-.19.17-.39.32-.59.46-.21.16-.43.3-.66.43-.15.08-.29.15-.44.22-.1.06-.22.11-.34.16-.19.08-.38.15-.58.22-.27.09-.55.17-.85.22-.12.03-.24.05-.37.07-.38.06-.77.09-1.16.09-4.2,0-7.63-3.42-7.63-7.63s3.43-7.63,7.63-7.63c.39,0,.78.03,1.16.09.13.02.25.04.37.07.38.07.74.18,1.09.31.12.04.23.08.34.13.12.05.24.1.34.16.15.07.29.14.44.22.23.13.45.27.66.43.2.14.4.29.59.46.18.16.36.33.53.51t.01,0v-1.65c-.49-.39-1.02-.73-1.58-1.01.52-1.42,1.06-2.96,1.58-4.58v-4.23c-.2.72-.41,1.44-.62,2.15-.02.05-.04.11-.05.17-.25.82-.51,1.63-.77,2.41-.42,1.27-.85,2.48-1.26,3.61-.89-.3-1.84-.47-2.83-.47s-1.98.18-2.88.49c-2.22-6.05-4.75-14.35-4.75-20.71,0-7.06,2.58-15.37,4.81-21.23h5.59c.93,2.45,1.93,5.34,2.76,8.38v-4.23c-.57-1.74-1.16-3.39-1.73-4.87v-3.94c.3-1.87.88-3.66,1.73-5.34v-2.42c-1.42,2.19-2.37,4.56-2.85,7.1h-5.41c-.62-3.28-1.99-6.26-4.09-8.9h12.35v-1.21ZM675.56,28.57h5.23v2.89h-5.23v-2.89ZM660.81,18.46c-2.15,2.67-3.53,5.65-4.14,8.9h-5.42c-.61-3.28-1.98-6.26-4.09-8.9h13.65ZM653.99,74.13c-1.01,0-1.98.18-2.89.49-2.21-6.05-4.74-14.35-4.74-20.71,0-7.06,2.58-15.37,4.8-21.23h5.6c2.22,5.85,4.79,14.15,4.79,21.23,0,6.35-2.52,14.65-4.73,20.69-.89-.3-1.84-.47-2.83-.47ZM661.61,82.97c0,4.21-3.42,7.63-7.62,7.63s-7.63-3.42-7.63-7.63,3.42-7.63,7.63-7.63,7.62,3.43,7.62,7.63ZM651.35,31.46v-2.89h5.22v2.89h-5.22ZM636.59,18.46c-2.14,2.67-3.53,5.65-4.13,8.9h-5.42c-.61-3.28-1.99-6.26-4.09-8.9h13.64ZM629.77,74.13c-1.01,0-1.98.18-2.88.49-2.21-6.05-4.75-14.35-4.75-20.71,0-7.06,2.58-15.37,4.81-21.23h5.59c2.23,5.85,4.8,14.15,4.8,21.23,0,6.35-2.53,14.65-4.74,20.69-.89-.3-1.84-.47-2.83-.47ZM637.4,82.97c0,4.21-3.42,7.63-7.63,7.63s-7.62-3.42-7.62-7.63,3.42-7.63,7.62-7.63,7.63,3.43,7.63,7.63ZM627.14,31.46v-2.89h5.22v2.89h-5.22ZM612.38,18.46c-2.15,2.67-3.53,5.65-4.14,8.9h-5.42c-.61-3.28-1.98-6.26-4.08-8.9h13.64ZM605.56,74.13c-1.01,0-1.98.18-2.88.49-2.22-6.05-4.75-14.35-4.75-20.71,0-7.06,2.58-15.37,4.81-21.23h5.59c2.22,5.85,4.8,14.15,4.8,21.23,0,6.35-2.53,14.65-4.74,20.69-.89-.3-1.84-.47-2.83-.47ZM613.19,82.97c0,4.21-3.43,7.63-7.63,7.63s-7.63-3.42-7.63-7.63,3.42-7.63,7.63-7.63,7.63,3.43,7.63,7.63ZM602.92,31.46v-2.89h5.22v2.89h-5.22ZM594.65,102.57h-2.4c-3.69-2.94-6.16-7.06-7.02-11.67,2.93-1.44,4.95-4.45,4.95-7.93s-1.99-6.45-4.89-7.9c2.25-6.15,4.83-14.62,4.83-21.16,0-7.38-2.7-15.99-4.98-21.95v-3.94c.57-3.53,2.13-6.74,4.61-9.56h7.4c2.44,2.77,3.98,5.99,4.56,9.56v3.94c-2.29,5.97-4.99,14.6-4.99,21.95,0,6.55,2.59,15.03,4.84,21.18-2.87,1.47-4.84,4.45-4.84,7.88s2.02,6.49,4.95,7.93c-.85,4.61-3.33,8.73-7.02,11.67ZM596.51,102.57c3.25-2.98,5.45-6.88,6.3-11.2.87.28,1.79.44,2.75.44s1.88-.16,2.74-.44c.86,4.32,3.06,8.22,6.31,11.2h-18.1ZM618.86,102.57h-2.39c-3.69-2.94-6.17-7.06-7.02-11.67,2.93-1.44,4.95-4.45,4.95-7.93s-2-6.45-4.89-7.9c2.25-6.15,4.83-14.62,4.83-21.16,0-7.38-2.7-15.99-4.99-21.95v-3.94c.58-3.53,2.13-6.74,4.62-9.56h7.39c2.45,2.77,3.98,5.99,4.57,9.56v3.94c-2.29,5.97-5,14.6-5,21.95,0,6.55,2.59,15.03,4.84,21.18-2.86,1.47-4.83,4.45-4.83,7.88s2.01,6.49,4.94,7.93c-.85,4.61-3.32,8.73-7.02,11.67ZM620.73,102.57c3.24-2.98,5.44-6.88,6.3-11.2.86.28,1.78.44,2.74.44s1.88-.16,2.75-.44c.85,4.32,3.05,8.22,6.3,11.2h-18.09ZM643.08,102.57h-2.4c-3.69-2.94-6.17-7.06-7.02-11.67,2.93-1.44,4.95-4.45,4.95-7.93s-1.99-6.45-4.89-7.9c2.25-6.15,4.83-14.62,4.83-21.16,0-7.38-2.7-15.99-4.98-21.95v-3.94c.57-3.53,2.12-6.74,4.61-9.56h7.4c2.44,2.77,3.97,5.99,4.56,9.56v3.94c-2.29,5.97-4.99,14.6-4.99,21.95,0,6.55,2.58,15.03,4.84,21.18-2.87,1.47-4.84,4.45-4.84,7.88s2.02,6.49,4.95,7.93c-.86,4.61-3.33,8.73-7.02,11.67ZM644.94,102.57c3.25-2.98,5.45-6.88,6.3-11.2.87.28,1.79.44,2.75.44s1.88-.16,2.74-.44c.85,4.32,3.06,8.22,6.3,11.2h-18.09ZM674.35,28.02v3.94c-2.28,5.97-4.99,14.6-4.99,21.95,0,6.55,2.59,15.03,4.84,21.18-2.87,1.47-4.84,4.45-4.84,7.88s2.02,6.49,4.95,7.93c-.85,4.61-3.33,8.73-7.02,11.67h-2.4c-3.69-2.94-6.16-7.06-7.01-11.67,2.92-1.44,4.94-4.45,4.94-7.93s-1.99-6.45-4.89-7.9c2.25-6.15,4.83-14.62,4.83-21.16,0-7.38-2.7-15.99-4.98-21.95v-3.94c.58-3.53,2.13-6.74,4.61-9.56h7.4c2.44,2.77,3.98,5.99,4.56,9.56Z"/><rect class="cls-2" x="581.34" y="1.21" width="102.39" height="9.99"/><rect class="cls-1" x="581.34" y="12.41" width="102.39" height="4.84"/><rect class="cls-6" x="581.34" y="126.78" width="102.39" height="4.85"/><rect class="cls-1" x="581.34" y="132.84" width="102.39" height="9.62"/><rect class="cls-6" x="581.34" y="103.78" width="102.39" height="4.84"/><path class="cls-1" d="M683.72,77.72c-.17-.18-.35-.35-.53-.51-.19-.17-.39-.32-.59-.46-.21-.16-.43-.3-.66-.43-.15-.08-.29-.15-.44-.22-.1-.06-.22-.11-.34-.16-.11-.05-.22-.09-.34-.13-.35-.13-.71-.24-1.09-.31-.12-.03-.24-.05-.37-.07-.38-.06-.77-.09-1.16-.09-4.2,0-7.63,3.43-7.63,7.63s3.43,7.63,7.63,7.63c.39,0,.78-.03,1.16-.09.13-.02.25-.04.37-.07.3-.05.58-.13.85-.22.2-.07.39-.14.58-.22.12-.05.24-.1.34-.16.15-.07.29-.14.44-.22.23-.13.45-.27.66-.43.2-.14.4-.29.59-.46.19-.15.37-.32.53-.51t.01-.01v-10.48s0,0-.01,0ZM678.2,85.85c-1.59,0-2.88-1.29-2.88-2.88s1.29-2.88,2.88-2.88,2.88,1.29,2.88,2.88-1.29,2.88-2.88,2.88Z"/><path class="cls-1" d="M622.15,82.97c0,4.21,3.42,7.63,7.63,7.63s7.63-3.42,7.63-7.63-3.42-7.63-7.63-7.63-7.63,3.42-7.63,7.63ZM629.77,80.1c1.59,0,2.88,1.29,2.88,2.88s-1.29,2.88-2.88,2.88-2.88-1.29-2.88-2.88,1.29-2.88,2.88-2.88Z"/><path class="cls-1" d="M646.36,82.97c0,4.21,3.42,7.63,7.63,7.63s7.63-3.42,7.63-7.63-3.42-7.63-7.63-7.63-7.63,3.42-7.63,7.63ZM653.99,80.1c1.59,0,2.88,1.29,2.88,2.88s-1.29,2.88-2.88,2.88-2.88-1.29-2.88-2.88,1.29-2.88,2.88-2.88Z"/><path class="cls-1" d="M588.97,82.97c0-4.21-3.42-7.63-7.63-7.63v4.75c1.59,0,2.88,1.29,2.88,2.88s-1.29,2.88-2.88,2.88v4.75c4.21,0,7.63-3.42,7.63-7.63Z"/><path class="cls-1" d="M597.93,82.97c0,4.21,3.42,7.63,7.63,7.63s7.63-3.42,7.63-7.63-3.42-7.63-7.63-7.63-7.63,3.42-7.63,7.63ZM605.56,80.1c1.59,0,2.88,1.29,2.88,2.88s-1.29,2.88-2.88,2.88-2.88-1.29-2.88-2.88,1.29-2.88,2.88-2.88Z"/><path class="cls-1" d="M678.2,84.64c.92,0,1.66-.75,1.66-1.66s-.75-1.66-1.66-1.66-1.66.75-1.66,1.66.75,1.66,1.66,1.66Z"/><circle class="cls-1" cx="653.99" cy="82.97" r="1.66"/><circle class="cls-1" cx="629.77" cy="82.97" r="1.66"/><path class="cls-1" d="M583.01,82.97c0-.92-.75-1.66-1.66-1.66v3.33c.92,0,1.66-.75,1.66-1.66Z"/><circle class="cls-1" cx="605.56" cy="82.97" r="1.66"/><path class="cls-3" d="M656.73,91.37c-.86.28-1.79.44-2.75.44s-1.88-.16-2.75-.44c-.85,4.32-3.05,8.22-6.3,11.2h18.09c-3.25-2.98-5.45-6.88-6.3-11.2Z"/><path class="cls-3" d="M683.73,98.36v4.21h-14.58c3.25-2.98,5.45-6.88,6.3-11.2.87.28,1.79.44,2.75.44s1.88-.16,2.75-.44c.49,2.51,1.44,4.87,2.78,6.99Z"/><path class="cls-3" d="M584.09,91.37c-.86.28-1.79.44-2.75.44v10.76h9.05c-3.25-2.98-5.45-6.88-6.3-11.2Z"/><path class="cls-3" d="M632.52,91.37c-.86.28-1.79.44-2.75.44s-1.88-.16-2.75-.44c-.85,4.32-3.05,8.22-6.3,11.2h18.09c-3.25-2.98-5.45-6.88-6.3-11.2Z"/><path class="cls-3" d="M608.3,91.37c-.86.28-1.79.44-2.75.44s-1.88-.16-2.75-.44c-.85,4.32-3.05,8.22-6.3,11.2h18.09c-3.25-2.98-5.45-6.88-6.3-11.2Z"/><path class="cls-1" d="M653.96,67.98c1.82-5.77,2.75-10.5,2.75-14.07,0-3.98-.93-8.89-2.75-14.6-1.83,5.71-2.75,10.62-2.75,14.6,0,4.21,1.39,9.7,2.76,14.07Z"/><path class="cls-1" d="M678.18,67.98c1.82-5.77,2.75-10.5,2.75-14.07,0-3.98-.93-8.89-2.75-14.6-1.83,5.71-2.75,10.62-2.75,14.6,0,4.21,1.39,9.7,2.76,14.07Z"/><path class="cls-1" d="M581.34,39.41v28.5c1.81-5.74,2.72-10.44,2.72-14,0-3.96-.92-8.83-2.72-14.5Z"/><path class="cls-1" d="M629.75,67.98c1.82-5.77,2.75-10.5,2.75-14.07,0-3.98-.93-8.89-2.75-14.6-1.83,5.71-2.75,10.62-2.75,14.6,0,4.21,1.39,9.7,2.76,14.07Z"/><path class="cls-1" d="M605.54,67.98c1.82-5.77,2.75-10.5,2.75-14.07,0-3.98-.93-8.89-2.75-14.6-1.83,5.71-2.75,10.62-2.75,14.6,0,4.21,1.39,9.7,2.76,14.07Z"/><rect class="cls-2" x="675.56" y="28.57" width="5.22" height="2.9"/><rect class="cls-2" x="651.35" y="28.57" width="5.22" height="2.9"/><rect class="cls-2" x="581.34" y="28.57" width="2.59" height="2.9"/><rect class="cls-2" x="602.92" y="28.57" width="5.22" height="2.9"/><rect class="cls-2" x="627.14" y="28.57" width="5.22" height="2.9"/><path class="cls-3" d="M646.36,53.91c0,6.35,2.53,14.65,4.74,20.71.9-.31,1.87-.49,2.88-.49s1.94.17,2.83.47c2.21-6.05,4.74-14.34,4.74-20.69,0-7.09-2.57-15.39-4.79-21.24h-5.6c-2.23,5.87-4.8,14.18-4.8,21.24ZM653.96,35.52l.57,1.67c2.25,6.58,3.39,12.21,3.39,16.72,0,4.06-1.14,9.52-3.39,16.23l-.58,1.72-.57-1.72c-1.55-4.66-3.4-11.27-3.4-16.22,0-4.51,1.14-10.14,3.39-16.72l.57-1.67Z"/><path class="cls-3" d="M680.97,32.68h-5.59c-2.23,5.86-4.81,14.17-4.81,21.23,0,6.36,2.53,14.66,4.75,20.71.9-.31,1.87-.49,2.88-.49s1.94.17,2.83.47c.41-1.13.84-2.34,1.26-3.61.26-.78.52-1.59.77-2.41.01-.06.03-.12.05-.17.21-.71.42-1.43.62-2.15v-25.2c-.83-3.04-1.83-5.93-2.76-8.38ZM678.75,70.14l-.58,1.72-.57-1.72c-1.55-4.67-3.39-11.27-3.39-16.23,0-4.51,1.14-10.14,3.39-16.72l.57-1.67.57,1.67c2.25,6.59,3.4,12.21,3.4,16.72,0,4.07-1.14,9.52-3.39,16.23Z"/><path class="cls-3" d="M588.91,53.91c0-7.09-2.57-15.39-4.79-21.24h-2.77v2.93l.54,1.59c2.25,6.58,3.39,12.21,3.39,16.72,0,4.06-1.14,9.52-3.39,16.23l-.55,1.64v2.35c.99,0,1.94.17,2.83.47,2.21-6.05,4.74-14.34,4.74-20.69Z"/><path class="cls-3" d="M622.14,53.91c0,6.35,2.53,14.65,4.74,20.71.9-.31,1.87-.49,2.88-.49s1.94.17,2.83.47c2.21-6.05,4.74-14.34,4.74-20.69,0-7.09-2.57-15.39-4.79-21.24h-5.6c-2.23,5.87-4.8,14.18-4.8,21.24ZM629.74,35.52l.57,1.67c2.25,6.58,3.39,12.21,3.39,16.72,0,4.06-1.14,9.52-3.39,16.23l-.58,1.72-.57-1.72c-1.55-4.66-3.4-11.27-3.4-16.22,0-4.51,1.14-10.14,3.39-16.72l.57-1.67Z"/><path class="cls-3" d="M597.93,53.91c0,6.35,2.53,14.65,4.74,20.71.9-.31,1.87-.49,2.88-.49s1.94.17,2.83.47c2.21-6.05,4.74-14.34,4.74-20.69,0-7.09-2.57-15.39-4.79-21.24h-5.6c-2.23,5.87-4.8,14.18-4.8,21.24ZM605.53,35.52l.57,1.67c2.25,6.58,3.39,12.21,3.39,16.72,0,4.06-1.14,9.52-3.39,16.23l-.58,1.72-.57-1.72c-1.55-4.66-3.4-11.27-3.4-16.22,0-4.51,1.14-10.14,3.39-16.72l.57-1.67Z"/><path class="cls-1" d="M683.73,18.46v1.8c-1.42,2.19-2.37,4.56-2.85,7.1h-5.41c-.62-3.28-1.99-6.26-4.09-8.9h12.35Z"/><path class="cls-1" d="M632.46,27.36c.61-3.24,1.99-6.23,4.14-8.89h-13.64c2.11,2.63,3.48,5.62,4.09,8.89h5.42Z"/><path class="cls-1" d="M656.67,27.36c.61-3.24,1.99-6.23,4.14-8.89h-13.64c2.11,2.63,3.48,5.62,4.09,8.89h5.42Z"/><path class="cls-1" d="M608.24,27.36c.61-3.24,1.99-6.23,4.14-8.89h-13.64c2.11,2.63,3.48,5.62,4.09,8.89h5.42Z"/><path class="cls-1" d="M588.16,18.46h-6.82v8.89h2.68c.61-3.24,1.99-6.23,4.14-8.89Z"/><rect class="cls-1" x="581.34" y="109.83" width="1.66" height="15.74"/><rect class="cls-1" x="599.86" y="109.83" width="3.33" height="15.74"/><rect class="cls-1" x="620.04" y="109.83" width="3.33" height="15.74"/><rect class="cls-1" x="680.57" y="109.83" width="3.16" height="15.74"/><rect class="cls-1" x="660.39" y="109.83" width="3.33" height="15.74"/><rect class="cls-1" x="640.21" y="109.83" width="3.33" height="15.74"/><rect class="cls-2" x="584.22" y="109.83" width="14.43" height="15.74"/><rect class="cls-2" x="604.4" y="109.83" width="14.43" height="15.74"/><rect class="cls-2" x="624.58" y="109.83" width="14.43" height="15.74"/><rect class="cls-2" x="664.93" y="109.83" width="14.43" height="15.74"/><rect class="cls-2" x="644.75" y="109.83" width="14.43" height="15.74"/></g></svg>