<?xml version="1.0" encoding="UTF-8"?><svg id="Layer_2" xmlns="http://www.w3.org/2000/svg" viewBox="0 0 336.01 111.16"><defs><style>.cls-1{stroke-width:0px;}</style></defs><g id="Layer_1-2"><path class="cls-1" d="m56.32,73.51l-8.02-18.21h-28.01l-8.21,18.21H0L34.25,0l34.2,73.51h-12.12Zm-31.78-27.77h19.71l-7.25-16.13c-.42-1.03-.85-2.21-1.3-3.55-.45-1.34-.9-2.83-1.35-4.47-.39,1.55-.8,2.99-1.23,4.32-.43,1.34-.88,2.57-1.33,3.7l-7.25,16.13Z"/><path class="cls-1" d="m83.02,73.51V2.8h11.5v60.43h25.7v10.29h-37.19Z"/><path class="cls-1" d="m137.94,73.51V2.8h17.82c5.09,0,8.85.27,11.28.82,2.43.55,4.5,1.45,6.21,2.71,2.19,1.61,3.89,3.72,5.1,6.33,1.21,2.61,1.81,5.49,1.81,8.65,0,3.77-.87,6.92-2.61,9.44-1.74,2.53-4.27,4.29-7.58,5.29,4.12.64,7.37,2.52,9.73,5.63,2.37,3.11,3.55,7.03,3.55,11.76,0,2.87-.5,5.59-1.5,8.16-1,2.58-2.42,4.77-4.25,6.57-1.93,1.96-4.33,3.35-7.2,4.15-2.87.81-7.68,1.21-14.44,1.21h-17.92Zm11.25-40.86h4.4c5.47,0,9.35-.75,11.62-2.25,2.27-1.5,3.41-4.02,3.41-7.56,0-3.86-1.05-6.58-3.14-8.14-2.09-1.56-6.05-2.34-11.88-2.34h-4.4v20.29Zm0,31.25h3.96c4.02,0,7.04-.16,9.03-.48,2-.32,3.57-.89,4.73-1.69,1.42-.93,2.51-2.19,3.28-3.77.77-1.58,1.16-3.32,1.16-5.22,0-2.25-.47-4.22-1.4-5.89-.93-1.67-2.27-2.98-4.01-3.91-1.1-.55-2.34-.95-3.74-1.21-1.4-.26-3.26-.39-5.58-.39h-7.44v22.56Z"/><path class="cls-1" d="m248.06,73.51l-8.02-18.21h-28.01l-8.21,18.21h-12.08L225.99,0l34.2,73.51h-12.12Zm-31.78-27.77h19.71l-7.25-16.13c-.42-1.03-.85-2.21-1.3-3.55-.45-1.34-.9-2.83-1.35-4.47-.39,1.55-.8,2.99-1.23,4.32-.43,1.34-.88,2.57-1.33,3.7l-7.25,16.13Z"/><path class="cls-1" d="m272.78,73.51V0l44.92,43.23c1.22,1.22,2.46,2.53,3.72,3.91,1.26,1.38,2.58,2.95,3.96,4.69V2.8h10.63v73.47l-45.84-44c-1.22-1.19-2.41-2.45-3.55-3.77-1.14-1.32-2.23-2.7-3.26-4.15v49.17h-10.58Z"/><path class="cls-1" d="m42.34,104.35c0-3.73,2.9-6.47,6.5-6.47s6.51,2.74,6.51,6.47-2.89,6.47-6.51,6.47-6.5-2.76-6.5-6.47Zm1.42,0c0,2.87,2.27,5.16,5.08,5.16s5.08-2.29,5.08-5.16-2.27-5.16-5.08-5.16-5.08,2.29-5.08,5.16Z"/><path class="cls-1" d="m64.29,98.09c1.26,0,2.31.15,3.15.88.92.79,1.14,1.89,1.14,2.68,0,1.76-1.11,3.51-3.96,3.51h-1.22v5.44h-1.39v-12.5h2.27Zm-.88,5.75h1.14c1.65,0,2.64-.82,2.64-2.27,0-1.99-1.86-2.17-2.76-2.17h-1.03v4.44Z"/><path class="cls-1" d="m76.08,105.76c0,1.05,0,2.19.99,3.04.51.43,1.37.71,2.06.71s1.56-.28,2.06-.71c.99-.84.99-1.99.99-3.04v-7.67h1.39v8.04c0,1.05-.11,2.06-.79,3-.75,1.03-2.06,1.69-3.66,1.69s-2.91-.66-3.66-1.69c-.67-.94-.79-1.95-.79-3v-8.04h1.39v7.67Z"/><path class="cls-1" d="m92.32,98.09v11.19h3.45v1.31h-4.84v-12.5h1.39Z"/><path class="cls-1" d="m108.26,99.4h-5.1v3.71h4.95v1.31h-4.95v4.85h5.1v1.31h-6.49v-12.5h6.49v1.31Z"/><path class="cls-1" d="m114.93,110.59v-13.03l9.75,10.22v-9.69h1.39v13.07l-9.75-10.22v9.65h-1.39Z"/><path class="cls-1" d="m136.5,99.4v11.19h-1.39v-11.19h-3.04v-1.31h7.46v1.31h-3.04Z"/><path class="cls-1" d="m160.93,107.07h-5.32l-1.5,3.52h-1.54l5.75-13.1,5.6,13.1h-1.54l-1.46-3.52Zm-.54-1.31l-2.1-5.01-2.14,5.01h4.24Z"/><path class="cls-1" d="m172.08,98.09c1.26,0,2.31.15,3.15.88.92.79,1.14,1.89,1.14,2.68,0,1.76-1.11,3.51-3.96,3.51h-1.22v5.44h-1.39v-12.5h2.27Zm-.88,5.75h1.14c1.65,0,2.64-.82,2.64-2.27,0-1.99-1.86-2.17-2.76-2.17h-1.03v4.44Z"/><path class="cls-1" d="m188.41,107.07h-5.32l-1.5,3.52h-1.54l5.75-13.1,5.61,13.1h-1.54l-1.46-3.52Zm-.54-1.31l-2.1-5.01-2.14,5.01h4.24Z"/><path class="cls-1" d="m199.31,98.09c.84,0,2.1.06,3.04.69.73.49,1.37,1.44,1.37,2.77,0,1.91-1.26,3.32-3.15,3.45l3.97,5.59h-1.69l-3.8-5.47h-.36v5.47h-1.39v-12.5h2.01Zm-.62,5.79h.88c1.72,0,2.76-.82,2.76-2.29,0-.69-.21-1.39-.99-1.84-.56-.32-1.2-.36-1.8-.36h-.84v4.48Z"/><path class="cls-1" d="m213.91,99.4v11.19h-1.39v-11.19h-3.04v-1.31h7.46v1.31h-3.04Z"/><path class="cls-1" d="m222.52,110.59l2.08-13.2,4.8,10.55,4.89-10.57,1.95,13.22h-1.42l-1.18-8.7-4.26,9.22-4.2-9.22-1.24,8.7h-1.43Z"/><path class="cls-1" d="m249.74,99.4h-5.1v3.71h4.95v1.31h-4.95v4.85h5.1v1.31h-6.49v-12.5h6.49v1.31Z"/><path class="cls-1" d="m256.42,110.59v-13.03l9.75,10.22v-9.69h1.39v13.07l-9.75-10.22v9.65h-1.39Z"/><path class="cls-1" d="m277.98,99.4v11.19h-1.39v-11.19h-3.04v-1.31h7.46v1.31h-3.04Z"/><path class="cls-1" d="m292.1,100.56c-.17-.34-.45-.71-.73-.94-.24-.19-.69-.43-1.41-.43-1.24,0-2.1.77-2.1,1.93,0,.49.13.77.47,1.09.37.37.84.58,1.31.79l1.2.52c.73.32,1.41.66,1.93,1.18.64.64.9,1.37.9,2.27,0,2.31-1.71,3.84-3.96,3.84-.82,0-1.86-.17-2.72-1.01-.62-.6-.99-1.46-1.16-2.21l1.35-.38c.09.66.39,1.22.75,1.59.54.54,1.16.69,1.8.69,1.71,0,2.51-1.22,2.51-2.48,0-.56-.17-1.05-.62-1.46-.36-.34-.84-.56-1.5-.86l-1.13-.53c-.49-.22-1.11-.49-1.67-1.03-.54-.52-.86-1.11-.86-2.04,0-1.93,1.48-3.23,3.51-3.23.77,0,1.39.15,2.01.56.51.34.94.84,1.22,1.39l-1.11.73Z"/></g></svg>