<svg xmlns="http://www.w3.org/2000/svg" width="278.316" height="63.172" viewBox="0 0 278.316 63.172">
  <g id="Group_9133" data-name="Group 9133" transform="translate(-543.842 -200.903)">
    <path id="Path_14175" data-name="Path 14175" d="M590.492,261.8l-6.642-15.083h-23.2l-6.8,15.083h-10L572.208,200.9,600.534,261.8ZM564.166,238.79H580.49l-6-13.362q-.52-1.279-1.081-2.941t-1.12-3.7q-.48,1.922-1.02,3.581t-1.1,3.061Z"/>
    <path id="Path_14176" data-name="Path 14176" d="M612.61,261.8V203.223h9.522v50.05h21.284V261.8Z"/>
    <path id="Path_14177" data-name="Path 14177" d="M658.094,261.8V203.223h14.762a46.513,46.513,0,0,1,9.342.68,13.616,13.616,0,0,1,5.141,2.241,13.316,13.316,0,0,1,4.221,5.241,16.842,16.842,0,0,1,1.5,7.161,13.481,13.481,0,0,1-2.16,7.822,11.263,11.263,0,0,1-6.281,4.381,12.06,12.06,0,0,1,8.062,4.661,15.619,15.619,0,0,1,2.94,9.742,18.56,18.56,0,0,1-1.24,6.761,15.222,15.222,0,0,1-3.521,5.441A13.19,13.19,0,0,1,684.9,260.8q-3.561,1-11.963,1Zm9.322-33.847h3.64q6.8,0,9.622-1.86t2.82-6.261q0-4.8-2.6-6.742t-9.842-1.94h-3.64Zm0,25.885h3.28a51.135,51.135,0,0,0,7.482-.4,9.491,9.491,0,0,0,3.92-1.4,7.733,7.733,0,0,0,2.721-3.121,9.683,9.683,0,0,0,.96-4.32,9.866,9.866,0,0,0-1.16-4.881,8.111,8.111,0,0,0-3.321-3.241,11.631,11.631,0,0,0-3.1-1,26.657,26.657,0,0,0-4.621-.32h-6.161Z"/>
    <path id="Path_14178" data-name="Path 14178" d="M749.308,261.8l-6.642-15.083h-23.2l-6.8,15.083h-10L731.024,200.9,759.35,261.8ZM722.983,238.79h16.323l-6-13.362q-.52-1.279-1.08-2.941t-1.121-3.7q-.48,1.922-1.02,3.581t-1.1,3.061Z"/>
    <path id="Path_14179" data-name="Path 14179" d="M769.787,261.8V200.9l37.208,35.807q1.52,1.521,3.081,3.241t3.28,3.88V203.223h8.8v60.852L784.19,227.628q-1.52-1.479-2.94-3.121t-2.7-3.44V261.8Z"/>
  </g>
</svg>
