<?xml version="1.0" encoding="UTF-8"?><svg id="Layer_2" xmlns="http://www.w3.org/2000/svg" viewBox="0 0 1366 170.29"><defs><style>.cls-1{fill:#808381;stroke-width:0px;}</style></defs><g id="Layer_1-2"><path class="cls-1" d="m1366,26.68v143.61H0V.38C88.37-.29,184.4,29,265.77,10.89c15.12-3.36,28.89-8.27,45.19-10.08,57.2-6.34,99.32,26.64,156.56,32.9,41.95,4.59,83.78-5.89,122.69-14.52,38.9-8.64,86.86-15.47,123.16-4.65,10.89,3.25,19.72,7.87,30.86,10.94,65.19,17.93,142.47-26.79,215.73-17.93,48.27,5.85,84.92,34.15,132.58,27.32,14.12-2.02,25.28-6.94,37.26-10.96,44.24-14.85,105.78-17.63,155.31-7.03,15.75,3.37,30.52,8,47.43,9.74,11.07,1.14,22.25,1,33.46.06Z"/></g></svg>