<?xml version="1.0" encoding="UTF-8"?><svg id="Layer_2" xmlns="http://www.w3.org/2000/svg" viewBox="0 0 1366 116.83"><defs><style>.cls-1{fill:#f8f3de;opacity:.6;stroke-width:0px;}</style></defs><g id="Layer_1-2"><path class="cls-1" d="m1366,8.79v108.04H0V2.54c34.39,3.07,69.8,10.41,102.5,5.16,9.06-1.46,17.34-3.83,26.36-5.34,55.72-9.37,120.59,15.59,174.05,3.69,8.39-1.87,16.04-4.6,25.09-5.6,31.76-3.52,55.14,14.79,86.92,18.27,23.29,2.54,46.51-3.28,68.11-8.07,21.6-4.79,48.23-8.59,68.38-2.58,6.05,1.81,10.95,4.37,17.13,6.07,36.19,9.96,79.1-14.87,119.78-9.95,26.79,3.25,47.14,18.96,73.6,15.17,7.84-1.12,14.04-3.85,20.69-6.09,24.56-8.24,58.73-9.78,86.23-3.9,8.74,1.87,16.94,4.45,26.33,5.41,37.14,3.82,316.48-18.23,348.41-8.6,5.07,1.53,9.2,3.77,14.75,4.86,9.68,1.92,20.61-.06,30.65-1.51,24.85-3.6,51.88-3.84,77.02-.74Z"/></g></svg>