<?xml version="1.0" encoding="UTF-8"?><svg id="Layer_2" xmlns="http://www.w3.org/2000/svg" viewBox="0 0 1366 97.99"><defs><style>.cls-1{fill:#f8f3de;opacity:.6;stroke-width:0px;}</style></defs><g id="Layer_1-2"><path class="cls-1" d="m1366,8.84v89.15H0V6c26.57,3.18,53.14,6.15,78.2,2.13,9.57-1.54,18.32-4.04,27.85-5.65,58.9-9.9,127.44,16.48,183.95,3.9,8.86-1.97,16.95-4.86,26.51-5.91,33.56-3.72,58.27,15.63,91.86,19.3,24.61,2.69,49.15-3.46,71.98-8.52,22.83-5.07,50.96-9.08,72.26-2.73,6.4,1.91,11.57,4.62,18.11,6.42,38.25,10.52,83.6-15.72,126.58-10.52,28.32,3.43,49.82,20.04,77.79,16.03,8.28-1.19,14.83-4.07,21.86-6.43,25.96-8.71,62.06-10.35,91.12-4.13,9.24,1.98,17.91,4.7,27.83,5.72,39.25,4.04,290.82-19.26,324.57-9.08,5.36,1.61,9.72,3.97,15.59,5.13,10.23,2.03,21.78-.07,32.39-1.6,25-3.61,52.08-4.03,77.55-1.22Z"/></g></svg>