<?xml version="1.0" encoding="UTF-8"?><svg id="Layer_2" xmlns="http://www.w3.org/2000/svg" viewBox="0 0 1366 138.01"><defs><style>.cls-1{fill:#cbd7cd;opacity:.6;stroke-width:0px;}</style></defs><g id="Layer_1-2"><path class="cls-1" d="m1366,9.37v128.64H0V5.29c3.38-.72,6.8-1.39,10.29-1.98,78.2-13.15,169.2,21.87,244.22,5.17,11.77-2.62,22.5-6.44,35.19-7.85,44.56-4.94,77.37,20.75,121.96,25.63,32.68,3.57,65.26-4.59,95.57-11.32,30.31-6.72,67.66-12.05,95.94-3.62,8.49,2.54,15.36,6.14,24.04,8.52,50.78,13.97,110.98-20.86,168.05-13.96,37.6,4.55,66.14,26.6,103.27,21.28,11-1.57,19.69-5.41,29.03-8.54,34.46-11.56,82.4-13.73,120.98-5.47,12.27,2.62,23.77,6.23,36.95,7.59,52.11,5.36,107.3-25.58,152.11-12.06,7.11,2.14,12.9,5.27,20.7,6.82,13.58,2.68,28.91-.1,43-2.14,20.88-3.02,42.85-4.35,64.7-3.99Z"/></g></svg>